<svg width="69" height="110" viewBox="0 0 69 110" fill="none" xmlns="http://www.w3.org/2000/svg">
<path d="M35.9316 1.9668L36.2034 34.0513C37.0177 34.4494 37.9353 33.8968 38.4653 29.8659C38.5504 29.2173 39.8217 14.6707 47.6497 13.4752C55.4778 12.2798 58.7794 33.4527 59.1409 47.7518C60.1357 87.0605 65.6559 102.206 65.6559 102.206C65.6559 102.206 67.4426 103.053 67.7592 103.252V6.10165L35.9316 1.9668Z" fill="#2E91FC"/>
<path d="M20.5949 26.5273C20.5949 26.5273 18.5605 28.9188 19.4186 33.9003L15.8901 33.9503C15.7539 34.1497 15.2119 34.9964 15.166 35.0464L16.478 44.2633L32.132 43.9646L31.6343 40.8753C28.9884 40.3691 26.4264 39.4288 24.0337 38.0858C24.0041 38.0654 23.979 38.038 23.9602 38.0055C23.9414 37.9731 23.9293 37.9365 23.925 37.8983C23.9207 37.8601 23.9241 37.8214 23.935 37.7848C23.946 37.7483 23.9642 37.7149 23.9883 37.6871C22.8408 36.7607 22.0244 35.4208 21.681 33.9003C20.849 30.2561 21.8621 27.6234 22.3592 26.7267C22.1787 26.7267 20.5949 26.5273 20.5949 26.5273Z" fill="#2E91FC"/>
<path d="M20.1414 20.947C19.8247 20.7977 19.8221 20.2502 19.7793 19.901C19.7308 19.5029 19.1914 19.6517 19.1914 20.0004C19.1914 20.6483 19.4183 21.4399 20.0511 21.595C20.6401 21.7392 20.9932 21.0935 21.1821 20.5484C21.2687 20.2979 20.9103 20.1497 20.7746 20.3491C20.6844 20.6483 20.458 21.1464 20.1414 20.947Z" fill="#0E1B1B"/>
<path d="M45.7487 38.0866C45.7791 38.0673 45.8057 38.0416 45.8269 38.0109C45.8482 37.9802 45.8637 37.9452 45.8725 37.9078C45.8813 37.8704 45.8833 37.8315 45.8783 37.7933C45.8734 37.7551 45.8615 37.7184 45.8435 37.6852C45.8255 37.6521 45.8016 37.6233 45.7734 37.6004C45.7452 37.5776 45.7131 37.5611 45.679 37.5521C45.6449 37.543 45.6095 37.5415 45.5749 37.5477C45.5403 37.5538 45.5072 37.5675 45.4774 37.5879C42.1748 39.3819 38.736 40.5751 35.0713 40.5751C31.2982 40.4993 27.5883 39.495 24.2135 37.6356C24.1578 37.6131 24.0971 37.6106 24.0401 37.6286C23.9831 37.6466 23.9327 37.684 23.8963 37.7356C23.8679 37.7954 23.8615 37.865 23.8784 37.9299C23.8953 37.9948 23.9342 38.0501 23.9871 38.0843C31.0227 42.0319 39.05 42.4592 45.7487 38.0866Z" fill="#0E1B1B"/>
<path d="M20.2867 17.4766C20.3125 17.6056 20.3652 17.7226 20.4331 17.8017C20.501 17.8809 20.5787 17.9158 20.6489 17.8988C20.7192 17.8817 20.7763 17.8141 20.8078 17.7109C20.8392 17.6076 20.8424 17.4771 20.8166 17.3481C20.7908 17.2191 20.7381 17.1022 20.6702 17.023C20.6023 16.9438 20.5246 16.9089 20.4544 16.926C20.3841 16.943 20.327 17.0106 20.2955 17.1139C20.2641 17.2171 20.2609 17.3476 20.2867 17.4766Z" fill="#0E1B1B"/>
<path d="M21.4539 9.8368C19.9609 10.1855 18.5133 11.6802 17.6536 13.025C16.7733 12.7962 15.8487 12.9017 15.0297 13.3243C12.2247 15.6157 10.6863 21.8433 10.4145 24.7327C7.47394 24.534 4.35232 25.6794 2.45191 28.2202C0.461254 30.8627 -0.805339 35.2951 1.6376 37.4872C9.19334 44.2656 21.3637 34.9958 17.5634 20.3986C15.3463 18.5029 17.7439 17.6085 18.1513 19.1532C18.5587 19.3525 19.8728 19.5518 19.2374 16.3131C19.832 16.4533 20.439 16.5202 21.047 16.5124C21.6803 17.4591 22.4493 18.3558 23.1279 19.2525C22.7659 19.3025 22.4498 19.3025 22.0846 19.3525C22.0356 19.3549 21.9877 19.3689 21.9441 19.3937C21.9006 19.4185 21.8624 19.4534 21.8323 19.496C21.8022 19.5386 21.7808 19.5879 21.7697 19.6405C21.7586 19.6931 21.758 19.7477 21.768 19.8006C22.5374 22.242 23.7586 23.6367 18.7366 23.2386C18.42 23.1886 18.3297 23.7866 18.6464 23.836C19.0817 23.8959 19.5197 23.9293 19.9583 23.936C19.964 24.5911 20.04 25.2433 20.1847 25.8788C20.2058 25.9549 20.251 26.0201 20.3122 26.0625C20.3734 26.1048 20.4463 26.1215 20.5178 26.1094C20.5892 26.0974 20.6543 26.0574 20.7011 25.9967C20.7479 25.9361 20.7733 25.859 20.7726 25.7794C20.7615 25.1402 20.6858 24.5044 20.5468 23.8837C24.0304 23.9337 23.2156 21.988 22.492 19.9482C22.8989 19.8982 24.4697 19.9597 23.9396 19.2502C23.2438 18.3191 22.5833 17.3075 21.8587 16.3608C26.2047 15.915 26.9282 8.59083 21.4539 9.8368ZM3.85466 37.0885C3.22136 37.1385 2.20725 35.5082 2.76856 34.1491C2.91149 33.8044 3.26622 33.9997 3.22136 34.3984C3.13059 35.4444 4.08054 36.1918 4.26155 36.4905C4.39771 36.7898 4.17131 37.0385 3.85466 37.0885ZM11.184 26.5267C9.37435 26.6261 7.51933 26.9748 5.98095 28.1208C5.31163 28.6367 4.74271 29.2948 4.3076 30.0562C3.87249 30.8177 3.57998 31.6673 3.44724 32.555C3.35699 33.103 2.4973 32.9536 2.54268 32.4056C2.81394 27.7721 7.56471 25.4801 11.2289 25.9287C11.5909 25.9787 11.5909 26.4768 11.184 26.5267ZM23.5354 12.1782C22.9615 11.4183 21.0919 11.879 19.9609 12.8756C19.6443 13.1249 19.2828 12.5269 19.5535 12.2776C20.685 11.2316 22.9923 9.78683 23.8969 11.8296C24.033 12.0783 23.72 12.4264 23.5354 12.1782Z" fill="#0E1B1B"/>
<path d="M15.1198 40.2772C13.1425 42.8914 11.7895 46.0081 11.1839 49.3443C11.1661 49.428 11.1778 49.5161 11.2167 49.5907C11.2556 49.6653 11.3187 49.7208 11.3934 49.7461C11.468 49.7715 11.5486 49.7646 11.6188 49.727C11.6891 49.6894 11.7438 49.6239 11.7718 49.5436C12.2898 47.957 13.4004 43.8141 15.5721 40.6259C15.7083 40.3766 15.304 40.0302 15.1198 40.2772Z" fill="#0E1B1B"/>
<path d="M10.1446 41.0757C9.73715 44.2644 9.34904 47.6818 10.0543 50.8413C10.154 51.2876 10.7711 51.0917 10.6876 50.6419C10.0966 47.4641 10.2802 44.315 10.552 41.1262C10.5968 40.8764 10.1446 40.8269 10.1446 41.0757Z" fill="#0E1B1B"/>
<path d="M13.2201 55.626C13.7136 53.8453 13.627 51.49 12.0887 50.2952C11.8628 50.0959 11.591 50.4945 11.772 50.7438C12.9483 52.0886 12.8581 53.731 12.5863 55.4267C12.5415 55.8725 13.0944 56.0753 13.2201 55.626Z" fill="#0E1B1B"/>
<path d="M10.64 57.815C10.917 56.4377 11.3739 55.1119 11.9963 53.8789C12.0383 53.7996 12.0499 53.7051 12.0287 53.6164C12.0075 53.5276 11.9551 53.4518 11.8831 53.4055C11.8111 53.3593 11.7253 53.3464 11.6447 53.3698C11.5641 53.3932 11.4952 53.4509 11.4532 53.5302C10.7172 54.8035 10.2818 56.2592 10.1866 57.765C10.1423 58.0143 10.5977 58.0648 10.64 57.815Z" fill="#0E1B1B"/>
<path d="M9.19415 57.3187C9.19415 55.8252 9.69182 54.778 10.3251 53.532C10.3563 53.4594 10.3634 53.3771 10.3454 53.2993C10.3273 53.2215 10.2851 53.153 10.2261 53.1058C10.1671 53.0586 10.095 53.0356 10.0222 53.0407C9.94939 53.0459 9.88052 53.0788 9.82745 53.1339C8.88846 54.1426 8.56086 55.874 8.6511 57.3187C8.6511 57.398 8.67971 57.4741 8.73063 57.5301C8.78155 57.5862 8.85061 57.6177 8.92263 57.6177C8.99464 57.6177 9.0637 57.5862 9.11462 57.5301C9.16554 57.4741 9.19415 57.398 9.19415 57.3187Z" fill="#0E1B1B"/>
<path d="M9.14824 52.0355C7.88165 52.8323 7.06733 54.678 6.97656 56.2698C6.9791 56.3409 7.00382 56.4089 7.04655 56.4623C7.08928 56.5157 7.14741 56.5513 7.21117 56.563C7.27492 56.5747 7.3404 56.5619 7.39658 56.5267C7.45275 56.4915 7.4962 56.4361 7.51961 56.3697C7.8419 54.9245 8.53258 53.6109 9.51027 52.5836C9.69129 52.236 9.4195 51.8339 9.14824 52.0355Z" fill="#0E1B1B"/>
<path d="M49.0077 31.1602C47.786 31.4095 45.0264 32.9542 44.6644 35.943C42.6299 36.491 40.5015 37.0414 38.4206 36.6898C35.0298 36.1188 32.265 33.2029 27.653 29.4162C26.1005 28.1415 23.9429 26.0269 21.8167 26.6261C21.7259 26.6761 21.6356 26.6761 21.5454 26.726C21.4879 26.7481 21.4403 26.7937 21.4126 26.8534C21.3849 26.9131 21.3792 26.9823 21.3967 27.0466C21.4142 27.1108 21.4535 27.1651 21.5065 27.1982C21.5595 27.2313 21.622 27.2405 21.681 27.2241C24.5945 26.3785 29.2065 32.2982 34.349 35.893C35.6997 36.856 37.2311 37.4692 38.828 37.6865C40.9084 37.9415 43.0806 37.2878 45.0713 36.5376C46.474 32.7514 48.016 32.5101 49.2336 31.7547C49.2936 31.7139 49.3384 31.6508 49.3599 31.5769C49.3814 31.5029 49.3783 31.4229 49.3511 31.3513C49.3239 31.2797 49.2744 31.221 49.2114 31.186C49.1485 31.151 49.0762 31.1418 49.0077 31.1602Z" fill="#0E1B1B"/>
<path d="M50.0007 30.1145C49.8318 31.7901 49.126 33.3446 48.01 34.4987C47.9799 34.5585 47.9666 34.6267 47.9718 34.6948C47.977 34.7629 48.0005 34.8278 48.0392 34.8811C48.078 34.9345 48.1302 34.974 48.1894 34.9946C48.2486 35.0152 48.312 35.0159 48.3715 34.9968C50.2265 34.0007 50.5208 31.1118 50.4983 30.114C50.4942 30.0444 50.4661 29.9791 50.4199 29.9315C50.3736 29.8838 50.3126 29.8573 50.2493 29.8574C50.1859 29.8575 50.125 29.8841 50.0788 29.9319C50.0326 29.9796 50.0047 30.0449 50.0007 30.1145Z" fill="#0E1B1B"/>
<path d="M50.8164 34.9455C51.1529 34.3557 51.3535 33.6842 51.4008 32.9895C51.4481 32.2949 51.3406 31.598 51.0876 30.9595C51.0624 30.8965 51.0175 30.8456 50.9611 30.816C50.9046 30.7864 50.8404 30.7801 50.7801 30.7983C50.7198 30.8164 50.6675 30.8578 50.6326 30.9149C50.5977 30.972 50.5825 31.0411 50.59 31.1094C50.879 32.2765 50.7658 33.5201 50.2723 34.6009C50.2517 34.6402 50.2384 34.6836 50.2331 34.7286C50.2278 34.7736 50.2306 34.8194 50.2413 34.8632C50.252 34.907 50.2705 34.9481 50.2956 34.984C50.3208 35.02 50.3521 35.0502 50.3878 35.0728C50.4235 35.0954 50.463 35.1101 50.5038 35.1159C50.5447 35.1218 50.5862 35.1187 50.626 35.1069C50.6658 35.0951 50.7031 35.0748 50.7358 35.0471C50.7684 35.0194 50.7958 34.9849 50.8164 34.9455Z" fill="#0E1B1B"/>
<path d="M52.3989 33.7017C52.3989 33.6291 52.3727 33.5594 52.3261 33.508C52.2794 33.4566 52.2161 33.4277 52.1501 33.4277C52.0841 33.4277 52.0208 33.4566 51.9742 33.508C51.9275 33.5594 51.9013 33.6291 51.9013 33.7017C51.6754 36.0932 50.0014 37.3885 47.9199 37.5879C47.6487 37.5879 47.5131 38.0848 47.8297 38.1359C50.2288 38.5242 52.2633 36.2431 52.3989 33.7017Z" fill="#0E1B1B"/>
<path d="M68.3248 4.70692C68.3046 4.63666 68.2621 4.57678 68.205 4.53828C68.148 4.49977 68.0802 4.48523 68.0142 4.49731C67.9482 4.50939 67.8883 4.54729 67.8456 4.60405C67.8029 4.66081 67.7803 4.73262 67.7818 4.8063C67.6686 18.0105 67.51 96.775 67.4198 102.704C66.8319 102.455 52.1424 97.813 48.7798 96.825C48.7467 96.81 48.7113 96.8026 48.6756 96.8031C48.6399 96.8036 48.6046 96.8121 48.572 96.828C48.5393 96.8439 48.5099 96.8669 48.4855 96.8956C48.4611 96.9243 48.4422 96.9582 48.43 96.9952C48.4178 97.0321 48.4125 97.0714 48.4144 97.1107C48.4164 97.15 48.4255 97.1884 48.4413 97.2237C48.457 97.259 48.4791 97.2904 48.5062 97.3161C48.5332 97.3417 48.5647 97.3611 48.5988 97.373C51.9014 98.5219 66.7411 103.451 67.3744 103.601C67.3295 105.444 67.3066 107.287 67.2841 109.081C67.2841 109.213 67.3318 109.34 67.4166 109.433C67.5014 109.526 67.6165 109.579 67.7364 109.579C67.8564 109.579 67.9714 109.526 68.0562 109.433C68.141 109.34 68.1887 109.213 68.1887 109.081C68.8841 94.9954 68.3697 12.1299 68.3248 4.70692Z" fill="#0E1B1B"/>
<path d="M35.7971 29.7663C35.7971 29.8786 35.8376 29.9862 35.9097 30.0656C35.9818 30.145 36.0796 30.1896 36.1816 30.1896C36.2836 30.1896 36.3814 30.145 36.4535 30.0656C36.5256 29.9862 36.5661 29.8786 36.5661 29.7663C36.6339 20.2 36.5661 10.5855 35.8879 1.01987C40.9099 1.76665 61.2657 4.59407 66.4724 5.20471C66.9241 5.25756 67.0144 4.41772 66.5626 4.35798C61.4373 3.67611 40.8192 1.06927 35.6151 0.421875C35.5527 0.437165 35.4966 0.474757 35.4557 0.528791C35.4147 0.582824 35.3912 0.650261 35.3887 0.720587C35.5483 10.3908 35.8649 20.0501 35.7971 29.7663Z" fill="#0E1B1B"/>
<path d="M65.8379 108.832C64.7111 108.224 54.257 105.544 52.0384 104.846C51.7672 104.696 51.6331 105.238 51.9482 105.344C54.1783 106.096 65.0231 109.43 65.6569 109.48C65.7266 109.482 65.7948 109.459 65.8512 109.414C65.9077 109.369 65.9493 109.305 65.9698 109.231C65.9903 109.158 65.9885 109.079 65.9647 109.007C65.9409 108.935 65.8964 108.874 65.8379 108.832Z" fill="#0E1B1B"/>
<path d="M30.3681 46.5551C30.0551 45.9537 29.463 46.157 28.8751 46.157C28.9653 45.9077 29.2366 44.1637 29.2366 44.1637C29.2343 44.0953 29.2131 44.0292 29.1759 43.9744C29.1386 43.9196 29.087 43.8786 29.028 43.857C28.9689 43.8354 28.9053 43.8342 28.8457 43.8534C28.786 43.8727 28.7331 43.9116 28.6941 43.965C28.4584 44.6688 28.321 45.4079 28.2866 46.157C20.3793 45.8664 25.5975 46.0502 19.3741 45.6584C19.3213 45.2289 19.2909 44.7964 19.2833 44.363C19.2849 44.3227 19.2791 44.2824 19.2661 44.2445C19.2532 44.2067 19.2335 44.1722 19.2081 44.143C19.1827 44.1138 19.1523 44.0906 19.1185 44.0747C19.0848 44.0588 19.0485 44.0506 19.0118 44.0506C18.9751 44.0506 18.9388 44.0588 18.905 44.0747C18.8713 44.0906 18.8408 44.1138 18.8154 44.143C18.7901 44.1722 18.7703 44.2067 18.7574 44.2445C18.7445 44.2824 18.7386 44.3227 18.7402 44.363C18.6953 44.7934 18.6953 45.228 18.7402 45.6584C18.7402 45.609 17.338 45.3097 17.8357 47.9505C15.8904 51.0892 16.387 55.0793 16.5686 55.1247C16.7939 55.1821 17.4737 51.0892 18.9213 49.2952C19.1477 49.0465 19.3287 49.3452 19.2379 49.4946C18.469 51.1886 17.6651 52.835 17.338 54.776C16.724 58.4169 18.4659 62.1013 19.8717 65.2884C20.7293 67.2329 21.998 73.3099 21.3647 74.2066C20.7314 75.1033 5.34973 94.6827 4.30641 96.2274C3.69326 96.5991 3.20234 97.1745 2.90366 97.8715C2.6157 98.6614 2.8661 99.6115 3.13006 100.362C3.74634 101.882 4.79421 103.141 6.11605 103.949C6.52347 104.099 6.83281 103.855 6.61371 103.501C6.14302 102.626 5.82111 101.663 5.66377 100.661C5.43923 99.7523 5.33262 98.8131 5.34712 97.8715C11.5455 92.4907 26.8396 78.8895 28.1959 77.3948C28.73 76.8451 29.1577 76.1823 29.4536 75.4461C29.7494 74.7099 29.9071 73.9155 29.9174 73.1106C30.053 67.2719 30.7484 47.291 30.3681 46.5551Z" fill="#0E1B1B"/>
<path d="M45.8847 103.849C45.4511 104.19 44.9543 104.42 44.4302 104.523C43.9061 104.627 43.3677 104.601 42.8538 104.447C42.1756 93.8851 32.55 57.3549 32.0857 56.8184C32.0419 56.7678 31.8598 56.719 31.9047 56.8184C31.9954 58.2137 30.5958 76.5454 30.8191 76.8964C35.7269 84.617 40.2293 104.447 41.1798 106.839C41.2247 106.988 41.4057 107.088 41.4964 107.138C44.0302 108.234 45.387 105.892 46.3823 104.198C46.6087 103.949 46.1564 103.649 45.8847 103.849Z" fill="#0E1B1B"/>
</svg>
