<svg width="104" height="118" viewBox="0 0 104 118" fill="none" xmlns="http://www.w3.org/2000/svg">
<path d="M38.5058 74.905C38.7136 74.7281 38.4879 74.4466 38.2584 74.485C37.3863 74.6322 35.1608 75.8297 34.4396 76.2719C34.212 76.4111 34.353 76.8175 34.6326 76.7272C35.9895 76.2708 37.2891 75.6594 38.5058 74.905Z" fill="#EF6820"/>
<path d="M40.4854 73.8534C42.5884 73.0122 43.46 72.9732 44.0766 72.5922C44.1251 72.5614 44.1623 72.5158 44.1827 72.4621C44.2031 72.4085 44.2056 72.3497 44.1898 72.2945C44.174 72.2393 44.1407 72.1907 44.095 72.1559C44.0493 72.1212 43.9936 72.1022 43.9362 72.1017C43.0084 72.0887 41.1077 72.9559 40.2925 73.4006C40.0444 73.5317 40.2226 73.9573 40.4854 73.8534Z" fill="#EF6820"/>
<path d="M71.7895 74.3788C72.3381 74.7561 72.9808 74.9918 73.5764 75.3245C74.172 75.6573 74.7343 76.0569 75.3454 76.3581C75.399 76.3861 75.4607 76.394 75.5196 76.3804C75.5785 76.3669 75.6306 76.3328 75.6666 76.2842C75.7025 76.2356 75.72 76.1758 75.7157 76.1156C75.7115 76.0553 75.6859 75.9985 75.6435 75.9554C74.6211 74.9373 73.3139 74.2532 71.8946 73.9935C71.6664 73.9619 71.6336 74.2712 71.7895 74.3788Z" fill="#EF6820"/>
<path d="M77.2017 77.6209C77.6866 77.9791 78.1858 78.3174 78.6732 78.6545C79.1216 79.0293 79.5895 79.3803 80.0748 79.706C80.1237 79.7328 80.18 79.743 80.2352 79.7351C80.2904 79.7272 80.3416 79.7016 80.381 79.6621C80.4204 79.6227 80.446 79.5715 80.4539 79.5163C80.4618 79.4611 80.4516 79.4048 80.4249 79.3559C80.0389 78.6483 78.5773 77.7793 77.4998 77.0964C77.1875 76.8979 76.9005 77.3983 77.2017 77.6209Z" fill="#EF6820"/>
<path d="M69.5811 79.9491C67.5944 79.2867 65.343 80.7019 66.165 82.6088C66.8002 84.084 68.7263 84.3481 68.5822 85.4986C68.5138 85.9221 68.2964 86.3073 67.9692 86.5847C66.4062 87.982 64.2383 86.7604 64.2203 84.7631C64.216 84.2201 63.3408 84.0617 63.2393 84.6227C63.1415 85.1109 63.1586 85.6152 63.2894 86.0956C63.4201 86.576 63.6609 87.0194 63.9927 87.3907C63.59 88.0389 63.3197 88.7879 62.9591 89.4578C62.7624 89.8234 63.2554 90.244 63.5548 89.931C64.0784 89.388 64.5478 88.7954 64.9564 88.1614C68.4597 90.0479 71.9817 85.5821 68.9329 83.2038C68.3527 82.7517 66.4971 81.6575 68.1096 81.1546C68.6593 81.0142 69.2419 81.0905 69.737 81.3676C70.232 81.6447 70.6016 82.1015 70.7693 82.6434C70.8584 82.9935 71.4565 82.9236 71.4176 82.5562C71.3613 81.853 71.0856 81.1851 70.6295 80.6468C71.111 79.9682 71.5498 79.2602 71.9433 78.5271C72.119 78.2123 71.7287 77.7335 71.4002 77.984C70.6886 78.5331 70.0737 79.1973 69.5811 79.9491Z" fill="#EF6820"/>
<path d="M43.567 79.3527C42.7796 81.2621 42.111 83.1876 41.5005 85.1861C40.9376 87.0243 40.1255 88.9684 39.9238 90.8963C39.9252 90.9742 39.952 91.0495 40.0001 91.1108C40.0482 91.1721 40.115 91.216 40.1903 91.2358C40.2657 91.2556 40.3454 91.2502 40.4175 91.2206C40.4895 91.1909 40.5499 91.1385 40.5894 91.0714C41.4337 89.3302 41.7714 87.2674 42.3411 85.4137C42.9447 83.4486 43.5998 81.5021 44.0729 79.4931C44.0834 79.4289 44.0698 79.3631 44.0347 79.3083C43.9997 79.2535 43.9456 79.2135 43.8829 79.1961C43.8202 79.1787 43.7533 79.1851 43.695 79.214C43.6367 79.2429 43.5911 79.2923 43.567 79.3527Z" fill="#EF6820"/>
<path d="M43.5863 88.0948C44.4479 88.915 45.758 88.3577 46.3889 87.5344C46.7304 87.1389 46.934 86.6429 46.9688 86.1215C47.0036 85.6001 46.8678 85.0814 46.5819 84.644C44.8463 82.3827 41.7895 86.3845 43.5863 88.0948ZM45.6893 87.0433C45.359 87.4478 44.6044 87.9179 44.1479 87.4459C42.9727 86.233 45.2081 83.6661 46.0221 85.3788C46.1225 85.6606 46.1444 85.9643 46.0856 86.2576C46.0268 86.5509 45.8894 86.8227 45.6881 87.0439L45.6893 87.0433Z" fill="#EF6820"/>
<path d="M40.0319 82.5753C38.2592 80.2929 35.2575 84.3331 37.0363 86.0261C37.898 86.8462 39.2012 86.2846 39.8389 85.4657C40.184 85.0719 40.3899 84.5756 40.4248 84.0532C40.4597 83.5307 40.3216 83.0114 40.0319 82.5753ZM37.5967 85.3587C36.4215 84.1457 38.668 81.5733 39.4709 83.2915C40.0443 84.523 38.3322 86.1226 37.5961 85.3587H37.5967Z" fill="#EF6820"/>
<path d="M69.0723 30.7608C68.7012 27.4826 67.6343 24.3615 66.5326 21.2843C66.4634 21.0913 66.1615 21.1606 66.2172 21.3721C67.8353 27.1968 70.0199 33.8621 66.9007 39.5724C64.0288 44.8299 57.6227 45.8981 52.3435 44.0215C52.1506 43.9529 52.0108 44.2689 52.2038 44.3543C54.5611 45.4011 57.1731 45.736 59.7183 45.318C60.2129 47.4433 60.8151 49.5422 61.5225 51.6066C61.549 51.6839 61.6042 51.7482 61.6767 51.7861C61.7492 51.8239 61.8335 51.8325 61.9121 51.81C61.9908 51.7876 62.0578 51.7358 62.0994 51.6654C62.1409 51.5949 62.1539 51.5112 62.1355 51.4315C61.9221 50.38 60.4364 45.9606 60.121 45.2301C66.9285 43.8687 69.8381 37.5603 69.0723 30.7608Z" fill="#0E1B1B"/>
<path d="M60.0174 33.4237C59.8776 33.5474 59.9821 33.8443 60.1745 33.809C60.9786 33.7218 62.4297 33.2994 62.7501 32.4606C62.9913 31.8285 62.366 30.9533 62.1365 30.3756C61.719 29.3241 61.2254 28.2818 60.7702 27.2402C60.6792 27.0318 60.3372 27.187 60.4027 27.3979C60.6972 28.3109 61.0763 29.4323 61.6113 30.8661C61.7023 31.1104 62.1544 31.8823 62.0839 32.1099C61.9268 32.7934 60.5097 32.9882 60.0174 33.4237Z" fill="#0E1B1B"/>
<path d="M55.2174 37.6271C55.0405 37.5424 54.7776 37.7335 54.9193 37.9252C56.3419 39.8458 59.3863 40.6053 61.1906 38.7658C61.3143 38.6421 61.1565 38.399 60.9976 38.5029C58.208 40.3295 56.5881 38.2883 55.2174 37.6271Z" fill="#0E1B1B"/>
<path d="M54.4832 26.9072C54.406 26.8648 54.3155 26.854 54.2305 26.8771C54.1456 26.9002 54.073 26.9553 54.0279 27.0309C53.5884 27.6794 53.1957 28.3584 52.8527 29.0628C52.8407 29.1147 52.8442 29.169 52.8626 29.219C52.8811 29.269 52.9137 29.3125 52.9566 29.3441C52.9994 29.3758 53.0506 29.3943 53.1038 29.3972C53.157 29.4002 53.2099 29.3876 53.256 29.3609C53.7975 28.8646 54.2221 28.2543 54.4992 27.574C55.0903 27.7988 55.6685 28.056 56.2311 28.3447C56.4253 28.43 56.5991 28.1171 56.4414 27.9946C55.8372 27.5508 55.1792 27.1855 54.4832 26.9072Z" fill="#0E1B1B"/>
<path d="M63.695 25.2604C63.3101 25.8209 63.0583 26.4619 62.959 27.1346C62.96 27.1849 62.9758 27.2337 63.0044 27.2751C63.0331 27.3165 63.0732 27.3485 63.12 27.3671C63.1667 27.3858 63.2178 27.3903 63.2671 27.3801C63.3164 27.3698 63.3615 27.3453 63.3969 27.3096C63.7389 26.8737 63.9893 26.3732 64.133 25.8381C64.6282 26.0925 65.137 26.3196 65.657 26.5185C65.7173 26.5336 65.781 26.5265 65.8365 26.4984C65.8919 26.4702 65.9353 26.423 65.9587 26.3655C65.9821 26.3079 65.9839 26.2438 65.9639 26.185C65.9438 26.1261 65.9031 26.0766 65.8494 26.0453C65.2853 25.7361 64.7156 25.4051 64.133 25.1348C64.0577 25.0959 63.9705 25.0871 63.889 25.1105C63.8076 25.1338 63.7382 25.1875 63.695 25.2604Z" fill="#0E1B1B"/>
<path d="M50.7316 26.8541C50.6753 27.0631 50.9728 27.2716 51.117 27.0817C51.5334 26.4291 52.0541 25.8493 52.6583 25.3652C53.044 25.1259 53.476 24.9709 53.9259 24.9105C54.3758 24.85 54.8333 24.8855 55.2685 25.0145C55.4263 25.0486 55.5636 24.8432 55.4263 24.7343C53.6919 23.3606 51.2122 25.0591 50.7316 26.8541Z" fill="#0E1B1B"/>
<path d="M61.2604 22.2991C61.1175 22.4538 61.2604 22.7735 61.488 22.6845C62.7423 22.1897 63.046 22.0146 64.7111 22.4562C64.9047 22.5076 65.0977 22.2447 64.9214 22.1062C64.3844 21.7064 63.7246 21.5068 63.0561 21.5421C62.3875 21.5773 61.7523 21.8451 61.2604 22.2991Z" fill="#0E1B1B"/>
<path d="M36.0379 107.102C36.1616 107.382 36.5142 107.19 36.5457 106.961C36.6182 105.864 36.9811 104.806 37.5972 103.896C38.1716 103.005 38.9865 102.294 39.9476 101.847C39.9912 101.832 40.0277 101.802 40.0499 101.762C40.072 101.722 40.0781 101.675 40.067 101.63C40.0559 101.586 40.0283 101.547 39.9899 101.522C39.9514 101.497 39.9049 101.488 39.8598 101.496C38.8326 101.781 37.9239 102.388 37.2675 103.228C33.9152 102.748 30.606 102.003 27.371 101.001C24.5505 100.179 21.3997 99.3082 19.8033 96.6046C19.6994 96.4284 19.4575 96.5848 19.5404 96.7624C20.8171 99.4839 23.7285 100.648 26.4247 101.474C29.2897 102.352 33.9355 103.763 36.9001 103.701C36.2129 104.649 35.5474 105.98 36.0379 107.102Z" fill="#0E1B1B"/>
<path d="M92.1626 58.9808C92.1636 58.9244 92.1474 58.869 92.1161 58.822C92.0849 58.7751 92.04 58.7388 91.9876 58.7179C88.9222 56.986 85.7744 55.1626 82.4053 54.0789C82.3674 54.0696 82.3275 54.0742 82.2927 54.0918C82.2579 54.1094 82.2305 54.1389 82.2156 54.1749C82.2006 54.2109 82.1991 54.2511 82.2112 54.2882C82.2233 54.3253 82.2483 54.3568 82.2816 54.3771C85.3477 56.0384 88.4669 57.565 91.5132 59.2468C91.0085 60.4251 91.0802 61.5724 89.271 64.4492C88.1482 66.2575 86.7538 67.8822 85.1367 69.2663C84.9091 69.4593 85.2419 69.7748 85.4522 69.5818C87.1399 68.2072 88.601 66.5758 89.7819 64.7474C90.5334 63.5666 92.2412 60.37 92.1626 58.9808Z" fill="#0E1B1B"/>
<path d="M77.8861 52.1658C73.6198 50.8531 69.1746 50.215 64.7114 50.2743C64.6545 50.2838 64.6019 50.3109 64.5611 50.3517C64.5203 50.3925 64.4933 50.445 64.4838 50.5019C64.36 55.2535 58.7203 56.5147 54.7969 55.8794C51.4692 55.3407 49.1244 53.2173 46.32 51.5862C46.2845 51.5286 46.2303 51.4848 46.1665 51.4623C46.1027 51.4398 46.033 51.4399 45.9692 51.4625C40.4952 53.1628 36.0554 54.9962 34.2679 56.0174C34.0563 56.138 34.198 56.5079 34.4256 56.4027C41.5517 53.6719 38.8722 54.231 45.9872 52.146C47.4061 52.9866 48.684 54.0214 50.1208 54.8261C54.8217 57.4567 59.6462 56.9204 62.4358 55.1063C63.1837 54.6262 63.7915 53.957 64.1975 53.1665C64.6035 52.376 64.7934 51.4921 64.7479 50.6046C69.1271 50.972 73.4692 51.4705 77.6752 52.8313C77.762 52.8544 77.8544 52.8431 77.9331 52.7999C78.0118 52.7567 78.0709 52.6848 78.0981 52.5991C78.1252 52.5135 78.1183 52.4207 78.0788 52.34C78.0394 52.2593 77.9703 52.1969 77.8861 52.1658Z" fill="#0E1B1B"/>
<path d="M21.988 88.5323C23.2265 89.7782 24.575 90.9098 26.0171 91.9132C26.2645 92.0697 26.5262 91.7196 26.3326 91.5099C24.5097 89.5405 19.5479 86.0823 12.9667 77.6016C12.4768 76.9701 11.7723 76.3231 11.6678 75.5171C11.5775 74.799 12.196 74.1174 12.5956 73.5378C16.5021 68.0526 21.4409 63.3818 27.1354 59.7873C27.415 59.611 27.1571 59.1626 26.8725 59.3494C21.7811 62.5829 17.2551 66.6303 13.4751 71.3303C12.5853 72.3434 11.8043 73.4471 11.1451 74.6234C10.5847 75.7986 11.4637 76.7406 12.1434 77.6368C15.1078 81.5431 18.4013 85.1883 21.988 88.5323Z" fill="#0E1B1B"/>
<path d="M103.967 84.4314C102.371 76.8363 98.7097 69.8291 93.3865 64.1813C93.1422 63.9184 92.7352 64.305 92.9839 64.5846C98.0473 70.3036 101.669 77.151 103.547 84.5551C103.615 84.8192 104.018 84.6967 103.967 84.4314Z" fill="#0E1B1B"/>
<path d="M57.9685 108.063C52.5124 116.221 38.9295 117.758 29.153 116.875C23.5472 116.368 17.8178 115.091 12.7563 112.545C7.32438 109.815 1.53368 105.03 1.37039 98.4611C1.1972 91.4847 7.07449 84.1761 11.5477 78.7188C11.69 78.5456 11.4469 78.3019 11.3003 78.4714C7.06521 83.5056 1.63698 89.6136 0.702375 96.3742C-0.240885 103.211 4.50078 108.615 10.023 111.955C23.846 120.312 51.4535 120.092 58.318 108.294C58.3486 108.248 58.3595 108.191 58.3484 108.137C58.3372 108.082 58.3049 108.034 58.2586 108.004C58.2122 107.973 58.1557 107.962 58.1012 107.973C58.0468 107.985 57.9991 108.017 57.9685 108.063Z" fill="#0E1B1B"/>
<path d="M59.5615 102.091C57.8531 103.852 56.407 105.853 54.6918 107.626C52.9478 109.343 51.0802 110.93 49.104 112.374C48.9456 112.497 49.1386 112.706 49.2963 112.637C51.4533 111.407 53.4087 109.853 55.0945 108.03C56.8856 106.303 58.4779 104.382 59.8417 102.302C59.8656 102.264 59.8744 102.219 59.8665 102.176C59.8586 102.132 59.8346 102.093 59.7991 102.066C59.7637 102.04 59.7195 102.028 59.6754 102.032C59.6314 102.037 59.5907 102.058 59.5615 102.091Z" fill="#0E1B1B"/>
<path d="M47.3334 109.939C47.1955 110.046 47.3687 110.271 47.5264 110.186C52.6411 106.75 56.8044 101.796 58.3693 98.6776C58.3995 98.6242 58.4074 98.5609 58.391 98.5018C58.3746 98.4426 58.3355 98.3924 58.2821 98.3621C58.2287 98.3319 58.1654 98.324 58.1063 98.3404C58.0471 98.3568 57.9969 98.3959 57.9666 98.4493C54.9859 102.519 53.1922 105.366 47.3334 109.939Z" fill="#0E1B1B"/>
<path d="M54.6385 97.1332C53.545 98.1587 53.3235 99.0655 50.4696 101.741C48.8616 103.173 47.1774 104.518 45.4243 105.769C45.3901 105.792 45.3658 105.826 45.3561 105.866C45.3465 105.906 45.3522 105.947 45.3722 105.983C45.3923 106.019 45.425 106.045 45.4639 106.058C45.5029 106.07 45.545 106.067 45.582 106.05C48.4157 104.468 50.9575 102.412 53.0971 99.971C53.8583 99.2258 54.518 98.3835 55.0591 97.466C55.0908 97.4096 55.1013 97.3438 55.0887 97.2804C55.0762 97.2171 55.0415 97.1602 54.9908 97.1201C54.9402 97.08 54.8768 97.0593 54.8123 97.0617C54.7477 97.0641 54.6861 97.0895 54.6385 97.1332Z" fill="#0E1B1B"/>
<path d="M24.9298 68.4042C26.7619 64.607 32.4425 52.8073 31.814 48.6112C31.5388 46.7711 29.7271 45.2606 27.908 46.2991C26.2584 47.2405 25.8186 50.7705 28.1004 51.2214C28.3806 51.2764 28.6422 50.9251 28.3985 50.7136C27.4132 49.86 26.8893 48.3112 28.0132 47.2801C29.429 45.9812 30.8881 47.5424 31.0081 48.9965C31.1868 51.1509 30.2566 53.5867 29.6244 55.6148C28.2785 59.9445 26.4081 64.0621 24.6323 68.2273C24.5432 68.4382 24.8277 68.6157 24.9298 68.4042Z" fill="#EF6820"/>
<path d="M30.5176 61.8895C31.742 58.054 33.2164 54.3028 34.9315 50.6601C35.6978 49.0111 36.4104 47.0961 37.5064 45.6327C37.8367 45.1923 38.3105 44.6888 38.9253 44.8441C39.1979 44.9347 39.4442 45.0906 39.6426 45.2983C39.8411 45.5059 39.9858 45.759 40.064 46.0353C40.4024 47.0671 39.855 48.6783 38.5227 48.1551C38.12 47.9967 37.8924 48.6097 38.2425 48.8206C38.6123 49.0195 39.0417 49.0777 39.4511 48.9843C39.8605 48.891 40.2222 48.6524 40.4692 48.3128C40.7257 47.9342 40.8882 47.4998 40.9429 47.0458C40.9977 46.5918 40.9432 46.1313 40.784 45.7026C40.6418 45.2733 40.383 44.8921 40.0367 44.6013C39.6904 44.3106 39.27 44.1218 38.8227 44.056C37.8757 43.9942 37.1613 44.8107 36.7196 45.5449C35.3285 48.0197 34.1275 50.5967 33.1272 53.2536C31.9928 56.0407 31.0861 58.9082 30.1842 61.7671C30.174 61.7894 30.1685 61.8136 30.168 61.8382C30.1675 61.8628 30.1722 61.8872 30.1816 61.9098C30.1911 61.9325 30.2051 61.953 30.2228 61.97C30.2406 61.987 30.2616 62.0002 30.2847 62.0087C30.3077 62.0171 30.3323 62.0208 30.3568 62.0193C30.3814 62.0178 30.4053 62.0113 30.4272 62.0001C30.4491 61.9889 30.4684 61.9733 30.484 61.9543C30.4995 61.9352 30.511 61.9132 30.5176 61.8895Z" fill="#EF6820"/>
<path d="M74.1022 63.03C79.9442 52.4803 83.0566 47.3879 85.3137 41.5539C86.0318 39.6983 87.9771 36.3842 85.5939 34.9146C83.7729 33.792 81.1244 36.4238 82.5631 38.1378C82.8426 38.4712 83.3554 38.0487 83.1587 37.6825C82.3169 36.1146 85.0353 34.4408 85.8042 36.4387C86.299 37.7172 85.2425 39.3816 84.8052 40.5556C82.0157 48.0398 78.1566 53.854 73.7335 62.8227C73.6135 63.0634 73.9655 63.2774 74.1022 63.03Z" fill="#EF6820"/>
<path d="M79.2147 58.6658C81.4191 54.041 84.1926 49.6637 86.7997 45.2653C88.0448 43.1623 89.2448 41.0215 90.5307 38.9414C91.1059 38.0136 92.7345 36.1419 93.9289 37.4526C94.5054 38.0847 94.172 39.2383 93.8763 39.9224C93.113 41.6895 91.8321 41.645 91.7046 40.711C91.7205 40.6407 91.7089 40.5669 91.6722 40.5048C91.6355 40.4427 91.5766 40.3969 91.5073 40.3768C91.438 40.3567 91.3637 40.3637 91.2995 40.3965C91.2352 40.4293 91.1859 40.4854 91.1616 40.5533C90.5672 42.2165 93.4081 43.427 94.7348 40.0628C95.1505 39.0113 95.3447 37.5095 94.3668 36.6819C93.9884 36.4061 93.5409 36.2404 93.0741 36.2033C92.6073 36.1662 92.1393 36.259 91.722 36.4716C90.5839 37.0153 89.9381 38.2078 89.3394 39.2395C84.6497 47.3194 81.6696 52.0574 78.8293 58.4029C78.7242 58.7004 79.0897 58.9274 79.2147 58.6658Z" fill="#EF6820"/>
<path d="M75.7652 4.8352C74.2584 9.24965 69.1085 9.89787 63.0123 9.65232C59.6666 6.39389 52.4094 3.8041 48.2628 4.95766C48.0865 5.00653 47.8954 5.06282 47.7024 5.11539C47.7762 5.73254 47.7072 6.35841 47.5007 6.94464C47.2941 7.53087 46.9555 8.06176 46.5111 8.49628C46.3874 8.60391 46.1437 8.49628 46.2136 8.32124C46.5208 7.60923 46.7612 6.8702 46.9317 6.1137C47.3647 3.71875 45.4899 2.01593 43.2879 0.979889C37.7527 -1.61114 32.4803 3.11815 33.0753 8.26866C33.2499 9.82667 33.7514 11.3303 34.5468 12.6813C35.0711 13.3466 35.7864 13.8357 36.5966 14.0829C37.7249 14.3258 38.8873 14.3677 40.0301 14.2066C40.2404 14.1892 40.2775 14.522 40.0827 14.5777C38.7683 14.8579 37.4372 15.1034 36.1241 14.6655C35.3469 14.4094 34.6598 13.9351 34.1448 13.2992C32.0251 14.6828 28.364 16.137 24.5625 13.4569C24.5625 13.4569 29.1699 19.7628 35.3008 16.6974C33.8839 19.8192 33.2408 23.2367 33.4261 26.6601C33.9864 38.7295 45.0749 41.8141 46.9669 42.2508C47.6994 45.1859 48.2088 48.1723 48.491 51.1842C48.543 51.6574 49.279 51.6574 49.2264 51.1842C48.8399 47.3444 47.6968 41.2667 46.4344 38.02C46.9144 38.0027 47.3866 37.8926 47.8249 37.6959C48.1929 37.5382 47.93 36.8918 47.5447 37.0483C47.0038 37.2525 46.4232 37.3295 45.8478 37.2733C45.2724 37.2171 44.7176 37.0293 44.2264 36.7243C43.7353 36.4193 43.3209 36.0054 43.0154 35.5145C42.7099 35.0237 42.5215 34.4691 42.4647 33.8938C42.3595 32.8077 42.7974 31.5112 44.0939 31.7741C44.9216 31.9938 45.7002 32.3682 46.3886 32.8776C46.5989 33.0013 46.7913 32.6673 46.5816 32.5101C46.2847 32.2844 45.9495 32.032 45.592 31.8025C48.7811 30.8129 44.7879 25.9135 48.4205 24.6795C49.9191 24.2235 51.2403 23.3158 52.2035 22.0805C53.1666 20.8451 53.7248 19.3425 53.8017 17.778C52.624 17.2284 51.5449 16.4886 50.6076 15.5884C50.4357 15.4442 50.6627 15.1467 50.855 15.2729C53.4572 16.9974 56.6853 18.7689 59.7 19.5296C62.8181 20.3003 71.2789 22.42 75.4305 14.8523C79.6013 7.30499 75.7652 4.8352 75.7652 4.8352ZM67.1113 17.6227C64.3965 17.8856 61.033 17.4124 58.9133 15.5197C58.7896 15.4152 58.9634 15.2426 59.0889 15.3447C61.0497 16.9491 64.3087 17.1316 66.7439 16.9739C69.967 16.7463 72.9799 15.1869 74.1712 12.0516C74.1805 12.0144 74.2041 11.9825 74.2369 11.9628C74.2698 11.9431 74.3091 11.9372 74.3462 11.9465C74.3834 11.9557 74.4154 11.9794 74.4351 12.0122C74.4548 12.045 74.4607 12.0843 74.4514 12.1215C73.5403 15.5729 70.4922 17.2899 67.1113 17.6227Z" fill="#0E1B1B"/>
<path d="M84.8751 81.3328C84.5244 81.2456 83.6473 81.5703 82.2111 82.2884C83.0472 83.2657 83.6097 84.4469 83.8415 85.712C83.8811 85.9916 83.5465 86.166 83.3857 85.905C83.0591 85.3755 82.8606 84.7836 82.5816 84.2232C82.5501 84.1614 81.7849 82.5859 81.7231 82.5241C81.5301 82.6292 81.3377 82.7165 81.1274 82.8395C82.3645 81.0099 85.7268 76.345 84.8937 75.1493C83.3745 72.9703 72.28 65.3765 69.7588 66.0056C69.3382 66.1101 68.3572 66.3557 65.2565 73.3803C65.3802 68.6504 65.2565 65.0067 64.6263 64.5162C62.6791 63.0039 50.1526 63.3725 47.5993 64.4989C46.8101 64.8477 46.601 67.9323 46.969 73.6779C45.3398 69.0531 44.0217 65.5021 43.6908 65.1823C43.4774 64.9745 43.0939 64.9498 42.3771 65.1471C39.2708 66.0013 27.6047 71.9788 27.2595 73.3451C26.9323 74.6378 40.968 102.14 42.2014 104.581C42.194 104.636 42.2001 104.693 42.2192 104.746C42.2383 104.798 42.2698 104.846 42.3111 104.883C42.3524 104.921 42.4023 104.949 42.4564 104.963C42.5105 104.977 42.5673 104.979 42.622 104.966C43.5399 104.71 43.6048 104.542 50.3648 99.3958C53.1135 97.3027 53.9269 96.4701 55.1819 96.0675C59.6972 94.6195 63.811 104.402 59.3508 110.133C59.052 110.518 59.4912 111.045 59.8413 110.87C59.9297 110.87 92.4379 100.045 92.2134 96.8555C91.875 92.0662 86.8754 81.8332 84.8751 81.3328ZM60.1753 70.7522C61.2268 70.8066 62.7335 70.8048 63.644 71.3831C63.6882 71.4082 63.7226 71.4474 63.7416 71.4945C63.7607 71.5416 63.7632 71.5937 63.7489 71.6424C63.7346 71.6912 63.7042 71.7336 63.6627 71.7629C63.6212 71.7922 63.571 71.8065 63.5203 71.8037C62.9853 71.7753 62.2096 71.4901 60.1741 71.2606C59.8605 71.2248 59.8425 70.7355 60.1753 70.7522ZM54.1322 70.7701C55.4594 70.5114 56.8261 70.5352 58.1434 70.84C58.1941 70.8573 58.2374 70.8914 58.2661 70.9367C58.2947 70.9819 58.307 71.0357 58.3008 71.0889C58.2947 71.1421 58.2705 71.1916 58.2323 71.2291C58.1941 71.2667 58.1442 71.29 58.0909 71.2953C57.4606 71.3355 56.8297 71.2074 56.2167 71.1907C55.5512 71.1722 54.8677 71.1728 54.2021 71.1728C53.9572 71.1728 53.904 70.8029 54.1341 70.7701H54.1322ZM47.6859 71.3478C49.0623 70.9845 50.4847 70.8252 51.9074 70.8753C51.9561 70.8683 52.0056 70.881 52.045 70.9105C52.0844 70.94 52.1104 70.984 52.1174 71.0327C52.1244 71.0814 52.1117 71.1309 52.0822 71.1703C52.0526 71.2097 52.0087 71.2357 51.96 71.2427C50.5842 71.6125 49.1627 71.7838 47.7385 71.7511C47.5282 71.7548 47.4744 71.3955 47.6859 71.3478ZM42.7636 104.123C38.7518 96.24 33.4968 85.7473 30.4666 79.3009C30.9862 79.0696 32.8566 78.0459 33.2339 77.5492C33.3929 77.3402 33.1282 77.1058 32.9185 77.1466C31.9721 77.599 31.0691 78.1374 30.2211 78.7548C29.3595 77.06 28.6105 75.3103 27.9789 73.517C28.8516 72.2311 41.6923 65.5114 43.2362 65.7044C44.0403 66.9656 49.8755 84.115 53.7469 95.765C52.7406 96.3755 43.7273 103.452 42.7636 104.123ZM55.6186 87.1835C55.5564 87.2403 55.4752 87.2717 55.391 87.2717C55.3067 87.2717 55.2256 87.2403 55.1633 87.1835L51.227 83.7506C51.177 83.7097 51.1403 83.6548 51.1215 83.593C51.1027 83.5312 51.1026 83.4651 51.1214 83.4033C51.1401 83.3414 51.1768 83.2865 51.2267 83.2455C51.2767 83.2045 51.3377 83.1792 51.4021 83.1729L54.2046 82.8222C54.2943 82.8222 54.345 82.7072 54.345 82.6299C54.1762 81.6173 53.2416 78.2643 53.784 78.023C54.2603 77.8109 57.0857 77.4831 57.2175 78.0577C57.1242 79.6023 56.8778 81.1339 56.482 82.6299C56.4751 82.653 56.4733 82.6773 56.4768 82.7012C56.4804 82.725 56.4891 82.7478 56.5025 82.7679C56.5158 82.788 56.5335 82.8049 56.5541 82.8174C56.5747 82.8299 56.5979 82.8376 56.6218 82.8402L59.1795 82.98C59.2442 82.9809 59.3071 83.0013 59.36 83.0385C59.413 83.0757 59.4534 83.1281 59.4761 83.1887C59.4989 83.2493 59.5028 83.3153 59.4874 83.3782C59.4719 83.441 59.4379 83.4977 59.3898 83.541L55.6186 87.1835ZM78.216 95.0487C77.1298 95.6815 76.0933 96.3959 75.1153 97.1858C75.4481 98.202 75.7994 99.2115 76.1309 100.234C76.2614 100.635 75.6782 100.985 75.4128 100.654C74.8071 99.9095 74.1326 99.2232 73.3983 98.6047C72.3468 99.4985 71.3392 100.419 70.2982 101.267C69.966 101.538 69.3661 101.287 69.5448 100.899C69.5757 100.807 70.3378 99.0611 70.7707 98.0443C70.9124 97.7121 71.0336 97.3639 71.174 97.0107C70.2129 96.4314 69.2052 95.9334 68.1612 95.5219C68.0621 95.4902 67.9775 95.4245 67.9223 95.3363C67.8672 95.2481 67.845 95.1433 67.8599 95.0403C67.8747 94.9374 67.9255 94.843 68.0033 94.774C68.0811 94.705 68.1809 94.6658 68.2849 94.6634C69.546 94.625 70.8072 94.5582 72.0511 94.5057C72.2787 93.7529 72.4841 92.9816 72.6814 92.1936C72.7088 92.1085 72.7625 92.0344 72.8348 91.9818C72.907 91.9292 72.9941 91.9009 73.0834 91.9009C73.1728 91.9009 73.2599 91.9292 73.3321 91.9818C73.4043 92.0344 73.458 92.1085 73.4855 92.1936C73.7329 92.9288 73.9782 93.6645 74.2215 94.4005C75.4827 94.3306 76.7618 94.2879 78.0224 94.2428C78.1154 94.2477 78.2043 94.2824 78.276 94.3419C78.3477 94.4013 78.3983 94.4823 78.4203 94.5728C78.4423 94.6633 78.4346 94.7585 78.3982 94.8442C78.3619 94.9299 78.2988 95.0017 78.2185 95.0487H78.216ZM58.9797 96.1701C58.5639 95.8163 58.0896 95.5377 57.5781 95.3469C59.7293 89.031 63.8871 77.8839 66.7571 71.7511C67.3874 72.0486 68.0882 72.241 68.7018 72.5552C69.2795 72.8527 69.8225 73.2554 70.4182 73.5535C70.5932 73.6407 70.879 73.4447 70.7336 73.2381C69.7928 72.1173 68.4564 71.402 67.002 71.2408C68.8242 67.44 69.6129 66.7416 69.9277 66.6693C72.0765 66.1745 82.8816 73.4886 84.2918 75.5328C84.3271 75.6027 84.5825 76.2466 81.8041 80.525C81.2245 81.4175 80.5256 82.4344 79.7376 83.5385C73.9444 86.7536 64.3362 92.7391 58.9846 96.1701H58.9797ZM86.2365 91.4928C86.221 91.7031 85.8858 91.8608 85.7806 91.6165C85.2555 90.3906 84.7322 89.1282 84.2918 87.8855C84.2046 87.6381 84.5745 87.4989 84.6945 87.7105C85.0891 88.4063 85.4571 89.1077 85.7806 89.8302C86.0696 90.3377 86.2279 90.909 86.2414 91.4928H86.2365ZM88.1533 97.5711C87.5052 96.3275 87.0102 95.0099 86.6794 93.6471C86.5717 93.2971 87.082 93.174 87.2218 93.5067C87.8508 94.7555 88.316 96.0802 88.6061 97.448C88.6234 97.7115 88.2579 97.7455 88.1533 97.5711Z" fill="#EF6820"/>
</svg>
