<svg width="65" height="106" viewBox="0 0 65 106" fill="none" xmlns="http://www.w3.org/2000/svg">
<path d="M34.1484 1.99805L34.4053 32.8531C35.1749 33.2359 36.0421 32.7045 36.543 28.828C36.6234 28.2044 37.8249 14.2151 45.2232 13.0655C52.6215 11.9159 55.7418 32.2774 56.0835 46.0286C57.0237 83.831 62.2408 98.3959 62.2408 98.3959C62.2408 98.3959 63.9294 99.2102 64.2287 99.4019V5.97446L34.1484 1.99805Z" fill="#6938EF"/>
<path d="M19.6504 25.6182C19.6504 25.6182 17.7276 27.9179 18.5386 32.7086L15.2038 32.7567C15.0752 32.9484 14.5629 33.7627 14.5195 33.8107L15.7595 42.6745L30.5541 42.3873L30.0837 39.4163C27.5831 38.9295 25.1617 38.0252 22.9004 36.7337C22.8724 36.7141 22.8487 36.6877 22.8309 36.6565C22.8131 36.6253 22.8018 36.5901 22.7976 36.5534C22.7935 36.5167 22.7968 36.4794 22.8071 36.4443C22.8175 36.4091 22.8347 36.377 22.8575 36.3503C21.773 35.4594 21.0014 34.1709 20.6769 32.7086C19.8905 29.204 20.848 26.6722 21.3178 25.8099C21.1472 25.8099 19.6504 25.6182 19.6504 25.6182Z" fill="#6938EF"/>
<path d="M19.224 20.2514C18.9247 20.1077 18.9222 19.5813 18.8818 19.2454C18.836 18.8625 18.3262 19.0056 18.3262 19.341C18.3262 19.9641 18.5406 20.7253 19.1387 20.8745C19.6953 21.0132 20.0291 20.3922 20.2075 19.868C20.2894 19.6271 19.9507 19.4846 19.8225 19.6763C19.7372 19.9641 19.5232 20.4431 19.224 20.2514Z" fill="#0E1B1B"/>
<path d="M43.4264 36.7337C43.4551 36.7152 43.4802 36.6905 43.5003 36.661C43.5204 36.6315 43.5351 36.5977 43.5434 36.5618C43.5518 36.5259 43.5536 36.4885 43.5489 36.4517C43.5442 36.415 43.533 36.3796 43.516 36.3478C43.499 36.3159 43.4764 36.2882 43.4498 36.2662C43.4231 36.2442 43.3927 36.2284 43.3605 36.2197C43.3283 36.211 43.2949 36.2096 43.2622 36.2155C43.2295 36.2214 43.1981 36.2346 43.17 36.2542C40.0487 37.9795 36.7987 39.1269 33.3352 39.1269C29.7693 39.0541 26.2631 38.0882 23.0735 36.3001C23.0209 36.2784 22.9635 36.276 22.9096 36.2933C22.8557 36.3106 22.8081 36.3466 22.7737 36.3962C22.7469 36.4538 22.7408 36.5207 22.7568 36.5831C22.7728 36.6455 22.8095 36.6986 22.8595 36.7315C29.5089 40.5279 37.0955 40.9389 43.4264 36.7337Z" fill="#0E1B1B"/>
<path d="M19.3595 16.914C19.3839 17.0381 19.4337 17.1506 19.4979 17.2267C19.5621 17.3028 19.6354 17.3364 19.7018 17.32C19.7682 17.3036 19.8222 17.2386 19.8519 17.1393C19.8817 17.04 19.8846 16.9145 19.8603 16.7905C19.8359 16.6664 19.7861 16.5539 19.7219 16.4778C19.6577 16.4017 19.5844 16.3681 19.518 16.3845C19.4515 16.4009 19.3976 16.4659 19.3678 16.5652C19.3381 16.6645 19.3351 16.79 19.3595 16.914Z" fill="#0E1B1B"/>
<path d="M20.4642 9.56767C19.0531 9.903 17.685 11.3404 16.8725 12.6337C16.0406 12.4137 15.1667 12.5151 14.3926 12.9215C11.7416 15.1251 10.2877 21.1141 10.0308 23.8928C7.25169 23.7017 4.30145 24.8032 2.50537 27.2466C0.623997 29.7878 -0.573059 34.0504 1.73576 36.1585C8.87669 42.6772 20.3789 33.7626 16.7872 19.7247C14.6919 17.9017 16.9578 17.0415 17.3429 18.527C17.7279 18.7187 18.9698 18.9104 18.3693 15.7958C18.9313 15.9306 19.5049 15.9949 20.0796 15.9875C20.6781 16.8979 21.4049 17.7603 22.0463 18.6226C21.7041 18.6707 21.4053 18.6707 21.0602 18.7187C21.0139 18.721 20.9686 18.7345 20.9275 18.7583C20.8863 18.7822 20.8502 18.8157 20.8218 18.8567C20.7933 18.8977 20.7731 18.9451 20.7626 18.9957C20.7521 19.0463 20.7516 19.0988 20.761 19.1496C21.4882 21.4975 22.6423 22.8388 17.896 22.4559C17.5968 22.4079 17.5115 22.983 17.8107 23.0305C18.2221 23.0881 18.6361 23.1202 19.0507 23.1266C19.056 23.7566 19.1278 24.3838 19.2646 24.9949C19.2845 25.0681 19.3273 25.1308 19.3851 25.1716C19.4429 25.2123 19.5119 25.2284 19.5794 25.2167C19.6469 25.2051 19.7084 25.1667 19.7526 25.1084C19.7969 25.0501 19.8209 24.9759 19.8203 24.8993C19.8098 24.2847 19.7382 23.6732 19.6068 23.0763C22.8992 23.1244 22.1291 21.2533 21.4453 19.2916C21.8298 19.2435 23.3143 19.3026 22.8134 18.6204C22.1557 17.7249 21.5316 16.7521 20.8468 15.8417C24.9541 15.413 25.6379 8.36945 20.4642 9.56767ZM3.8311 35.7751C3.23257 35.8231 2.27414 34.2553 2.80463 32.9483C2.93972 32.6168 3.27497 32.8047 3.23257 33.188C3.14679 34.194 4.04458 34.9127 4.21566 35.2C4.34434 35.4878 4.13037 35.727 3.8311 35.7751ZM10.7581 25.6181C9.04776 25.7136 7.29458 26.049 5.84066 27.1511C5.20809 27.6472 4.6704 28.28 4.25918 29.0123C3.84796 29.7446 3.5715 30.5616 3.44605 31.4153C3.36076 31.9423 2.54826 31.7987 2.59115 31.2717C2.84752 26.8157 7.33747 24.6115 10.8005 25.043C11.1426 25.091 11.1426 25.57 10.7581 25.6181ZM22.4313 11.8194C21.889 11.0885 20.122 11.5316 19.0531 12.49C18.7539 12.7298 18.4122 12.1547 18.6681 11.915C19.7375 10.909 21.9181 9.51961 22.773 11.4841C22.9017 11.7233 22.6059 12.058 22.4313 11.8194Z" fill="#0E1B1B"/>
<path d="M14.4775 38.8424C12.6087 41.3563 11.33 44.3536 10.7577 47.5619C10.7408 47.6425 10.7519 47.7272 10.7887 47.7989C10.8254 47.8706 10.8851 47.9241 10.9556 47.9484C11.0262 47.9727 11.1023 47.9662 11.1687 47.93C11.2351 47.8939 11.2868 47.8308 11.3133 47.7536C11.8029 46.2278 12.8525 42.2437 14.905 39.1777C15.0336 38.9379 14.6516 38.6048 14.4775 38.8424Z" fill="#0E1B1B"/>
<path d="M9.77639 39.6085C9.39134 42.675 9.02453 45.9615 9.6911 48.9998C9.78527 49.4291 10.3685 49.2407 10.2896 48.8081C9.73103 45.7521 9.90458 42.7236 10.1614 39.6571C10.2038 39.4168 9.77639 39.3693 9.77639 39.6085Z" fill="#0E1B1B"/>
<path d="M12.6823 53.6013C13.1487 51.8888 13.0669 49.6238 11.6129 48.4748C11.3995 48.2831 11.1426 48.6665 11.3137 48.9062C12.4254 50.1995 12.3401 51.7789 12.0833 53.4096C12.0409 53.8383 12.5635 54.0333 12.6823 53.6013Z" fill="#0E1B1B"/>
<path d="M10.2438 55.7067C10.5057 54.3822 10.9374 53.1072 11.5257 51.9214C11.5653 51.8452 11.5764 51.7544 11.5563 51.669C11.5362 51.5836 11.4867 51.5107 11.4187 51.4662C11.3506 51.4217 11.2696 51.4094 11.1934 51.4319C11.1172 51.4544 11.0521 51.5098 11.0124 51.5861C10.3168 52.8106 9.90534 54.2106 9.81537 55.6586C9.77346 55.8984 10.2039 55.947 10.2438 55.7067Z" fill="#0E1B1B"/>
<path d="M8.87644 55.229C8.87644 53.7927 9.34678 52.7856 9.94531 51.5873C9.97476 51.5175 9.98153 51.4384 9.96444 51.3635C9.94735 51.2887 9.90748 51.2229 9.85171 51.1775C9.79595 51.1322 9.72779 51.11 9.659 51.1149C9.59022 51.1199 9.52512 51.1515 9.47497 51.2045C8.58753 52.1746 8.27791 53.8396 8.3632 55.229C8.3632 55.3052 8.39024 55.3784 8.43836 55.4323C8.48649 55.4862 8.55176 55.5165 8.61982 55.5165C8.68788 55.5165 8.75315 55.4862 8.80128 55.4323C8.8494 55.3784 8.87644 55.3052 8.87644 55.229Z" fill="#0E1B1B"/>
<path d="M8.83175 50.1487C7.63469 50.9149 6.86508 52.6899 6.7793 54.2207C6.7817 54.2891 6.80506 54.3545 6.84544 54.4058C6.88583 54.4572 6.94077 54.4914 7.00102 54.5027C7.06127 54.5139 7.12316 54.5016 7.17625 54.4678C7.22935 54.4339 7.27041 54.3806 7.29253 54.3168C7.59712 52.927 8.24989 51.6637 9.1739 50.6757C9.34498 50.3415 9.08812 49.9548 8.83175 50.1487Z" fill="#0E1B1B"/>
<path d="M46.505 30.0733C45.3503 30.313 42.7422 31.7985 42.4001 34.6728C40.4773 35.1998 38.4658 35.7291 36.4991 35.391C33.2945 34.8419 30.6815 32.0377 26.3226 28.3961C24.8554 27.1702 22.8163 25.1367 20.8067 25.7129C20.7209 25.761 20.6356 25.761 20.5503 25.809C20.496 25.8302 20.451 25.8741 20.4248 25.9315C20.3987 25.989 20.3933 26.0555 20.4098 26.1173C20.4263 26.179 20.4635 26.2313 20.5136 26.2631C20.5636 26.2949 20.6227 26.3038 20.6785 26.288C23.4321 25.4748 27.7909 31.1676 32.6511 34.6247C33.9276 35.5508 35.3749 36.1405 36.8842 36.3494C38.8503 36.5947 40.9033 35.9661 42.7846 35.2446C44.1104 31.6035 45.5677 31.3715 46.7185 30.645C46.7752 30.6057 46.8175 30.5451 46.8378 30.474C46.8582 30.4029 46.8552 30.3259 46.8295 30.257C46.8038 30.1881 46.757 30.1318 46.6975 30.0981C46.638 30.0644 46.5697 30.0556 46.505 30.0733Z" fill="#0E1B1B"/>
<path d="M47.4439 29.0676C47.2843 30.679 46.6173 32.1738 45.5625 33.2837C45.5341 33.3412 45.5215 33.4068 45.5264 33.4723C45.5313 33.5378 45.5535 33.6002 45.5901 33.6515C45.6268 33.7028 45.6762 33.7408 45.7321 33.7606C45.788 33.7804 45.8479 33.7811 45.9042 33.7627C47.6574 32.8048 47.9355 30.0266 47.9143 29.067C47.9103 29.0001 47.8838 28.9373 47.8401 28.8915C47.7964 28.8457 47.7387 28.8202 47.6788 28.8203C47.619 28.8204 47.5614 28.846 47.5178 28.8919C47.4741 28.9378 47.4477 29.0006 47.4439 29.0676Z" fill="#0E1B1B"/>
<path d="M48.2158 33.714C48.5339 33.1467 48.7235 32.501 48.7682 31.8329C48.8128 31.1649 48.7113 30.4947 48.4722 29.8806C48.4484 29.8201 48.4059 29.7711 48.3526 29.7426C48.2993 29.7142 48.2386 29.7081 48.1816 29.7256C48.1246 29.7431 48.0751 29.7829 48.0421 29.8378C48.0091 29.8927 47.9948 29.9591 48.0019 30.0248C48.275 31.1472 48.1681 32.3432 47.7016 33.3825C47.6822 33.4203 47.6696 33.4621 47.6646 33.5054C47.6596 33.5487 47.6622 33.5926 47.6723 33.6348C47.6825 33.6769 47.6999 33.7164 47.7237 33.751C47.7474 33.7856 47.7771 33.8146 47.8108 33.8363C47.8446 33.8581 47.8818 33.8722 47.9205 33.8778C47.9591 33.8835 47.9983 33.8805 48.0359 33.8691C48.0736 33.8578 48.1088 33.8382 48.1397 33.8116C48.1705 33.785 48.1964 33.7518 48.2158 33.714Z" fill="#0E1B1B"/>
<path d="M49.7103 32.5174C49.7103 32.4475 49.6855 32.3805 49.6414 32.3311C49.5973 32.2817 49.5375 32.2539 49.4751 32.2539C49.4127 32.2539 49.3529 32.2817 49.3088 32.3311C49.2647 32.3805 49.2399 32.4475 49.2399 32.5174C49.0265 34.8172 47.4444 36.0629 45.4772 36.2546C45.2208 36.2546 45.0926 36.7325 45.3919 36.7816C47.6593 37.1551 49.5821 34.9614 49.7103 32.5174Z" fill="#0E1B1B"/>
<path d="M64.763 4.6333C64.7439 4.56573 64.7037 4.50815 64.6498 4.47112C64.5958 4.43409 64.5318 4.4201 64.4694 4.43172C64.407 4.44334 64.3504 4.47979 64.3101 4.53437C64.2697 4.58896 64.2483 4.65802 64.2497 4.72887C64.1428 17.4271 63.9929 93.1733 63.9076 98.875C63.352 98.6358 49.469 94.1716 46.2909 93.2214C46.2597 93.207 46.2262 93.1999 46.1925 93.2004C46.1587 93.2009 46.1254 93.209 46.0945 93.2243C46.0637 93.2396 46.0359 93.2617 46.0128 93.2893C45.9898 93.317 45.9719 93.3495 45.9604 93.3851C45.9489 93.4206 45.9439 93.4584 45.9457 93.4962C45.9475 93.5339 45.9561 93.5709 45.971 93.6048C45.9859 93.6388 46.0068 93.669 46.0324 93.6937C46.0579 93.7183 46.0877 93.737 46.1199 93.7484C49.2412 94.8533 63.2662 99.5937 63.8647 99.7374C63.8223 101.51 63.8006 103.282 63.7794 105.008C63.7794 105.135 63.8244 105.256 63.9046 105.346C63.9848 105.436 64.0935 105.487 64.2069 105.487C64.3202 105.487 64.4289 105.436 64.5091 105.346C64.5893 105.256 64.6343 105.135 64.6343 105.008C65.2915 91.4619 64.8054 11.7718 64.763 4.6333Z" fill="#0E1B1B"/>
<path d="M34.0188 28.7326C34.0188 28.8406 34.0571 28.9442 34.1253 29.0205C34.1934 29.0969 34.2858 29.1398 34.3822 29.1398C34.4786 29.1398 34.571 29.0969 34.6391 29.0205C34.7073 28.9442 34.7456 28.8406 34.7456 28.7326C34.8097 19.533 34.7456 10.2869 34.1046 1.08778C38.8509 1.80594 58.0891 4.52501 63.01 5.11225C63.437 5.16307 63.5222 4.35542 63.0953 4.29796C58.2514 3.64223 38.7652 1.13529 33.8468 0.512695C33.7878 0.527399 33.7349 0.563551 33.6962 0.615514C33.6575 0.667477 33.6352 0.732329 33.6328 0.79996C33.7837 10.0996 34.0829 19.3888 34.0188 28.7326Z" fill="#0E1B1B"/>
<path d="M62.413 104.769C61.3481 104.184 51.4679 101.607 49.3711 100.936C49.1147 100.792 48.988 101.313 49.2858 101.415C51.3935 102.138 61.6429 105.344 62.2419 105.393C62.3077 105.394 62.3722 105.372 62.4256 105.328C62.479 105.285 62.5183 105.224 62.5376 105.153C62.557 105.083 62.5553 105.007 62.5328 104.938C62.5103 104.868 62.4682 104.809 62.413 104.769Z" fill="#0E1B1B"/>
<path d="M28.8864 44.8769C28.5906 44.2985 28.031 44.494 27.4754 44.494C27.5607 44.2543 27.8171 42.5771 27.8171 42.5771C27.8149 42.5113 27.7949 42.4477 27.7597 42.395C27.7244 42.3423 27.6757 42.3029 27.6199 42.2822C27.5641 42.2614 27.504 42.2602 27.4476 42.2787C27.3912 42.2973 27.3412 42.3347 27.3043 42.3859C27.0816 43.0628 26.9518 43.7736 26.9193 44.494C19.446 44.2145 24.3777 44.3913 18.496 44.0145C18.4461 43.6015 18.4174 43.1855 18.4102 42.7688C18.4117 42.73 18.4062 42.6912 18.394 42.6548C18.3818 42.6185 18.3631 42.5852 18.3392 42.5572C18.3152 42.5291 18.2864 42.5067 18.2545 42.4915C18.2226 42.4762 18.1883 42.4683 18.1536 42.4683C18.1189 42.4683 18.0846 42.4762 18.0527 42.4915C18.0208 42.5067 17.992 42.5291 17.968 42.5572C17.944 42.5852 17.9254 42.6185 17.9132 42.6548C17.901 42.6912 17.8955 42.73 17.897 42.7688C17.8545 43.1827 17.8545 43.6006 17.897 44.0145C17.897 43.967 16.5717 43.6792 17.0421 46.2187C15.2036 49.2372 15.673 53.0744 15.8445 53.118C16.0575 53.1733 16.6999 49.2372 18.0681 47.512C18.282 47.2728 18.4531 47.56 18.3673 47.7037C17.6406 49.3328 16.8809 50.9161 16.5717 52.7827C15.9914 56.284 17.6376 59.8273 18.9663 62.8922C19.7769 64.7622 20.9759 70.6064 20.3774 71.4688C19.7788 72.3311 5.2416 91.1602 4.25556 92.6457C3.67607 93.0032 3.21211 93.5565 2.92982 94.2268C2.65767 94.9864 2.89432 95.9001 3.14379 96.6221C3.72623 98.0841 4.71658 99.2946 5.96585 100.072C6.3509 100.216 6.64326 99.9815 6.43619 99.6406C5.99134 98.7989 5.6871 97.8734 5.5384 96.9094C5.32619 96.0355 5.22543 95.1323 5.23913 94.2268C11.0972 89.0522 25.5516 75.9722 26.8335 74.5348C27.3382 74.0061 27.7425 73.3687 28.0221 72.6607C28.3017 71.9528 28.4508 71.1888 28.4605 70.4147C28.5886 64.7998 29.2458 45.5845 28.8864 44.8769Z" fill="#0E1B1B"/>
<path d="M43.5543 99.9766C43.1445 100.304 42.675 100.525 42.1797 100.625C41.6844 100.724 41.1755 100.699 40.6898 100.552C40.0489 90.3941 30.9517 55.2638 30.5129 54.7478C30.4715 54.6992 30.2994 54.6522 30.3418 54.7478C30.4276 56.0897 29.1048 73.7189 29.3158 74.0565C33.9542 81.4811 38.2094 100.552 39.1077 102.851C39.1501 102.995 39.3212 103.091 39.407 103.139C41.8016 104.193 43.0839 101.941 44.0246 100.312C44.2386 100.072 43.8111 99.7844 43.5543 99.9766Z" fill="#0E1B1B"/>
</svg>
