<svg width="134" height="80" viewBox="0 0 134 80" fill="none" xmlns="http://www.w3.org/2000/svg">
<path d="M43.0914 13.6123C40.9003 9.92816 37.6329 6.95734 33.7021 5.07552C29.7714 3.19369 25.3539 2.48538 21.0084 3.04016C16.6628 3.59494 12.5844 5.38789 9.28884 8.19227C5.99327 10.9967 3.6286 14.6865 2.49385 18.7952C1.3591 22.9039 1.50525 27.2469 2.91382 31.275C4.32239 35.3031 6.9301 38.8354 10.4072 41.4251C13.8843 44.0148 18.0746 45.5456 22.4481 45.8241C26.8217 46.1025 31.1821 45.1159 34.978 42.9892C37.499 41.578 39.7088 39.6986 41.4811 37.4582C43.2534 35.2179 44.5534 32.6605 45.3069 29.9324C46.0604 27.2042 46.2525 24.3586 45.8724 21.5584C45.4922 18.7581 44.5472 16.058 43.0914 13.6123ZM32.2866 38.4774C29.4172 40.0855 26.1209 40.8318 22.8145 40.6217C19.5081 40.4117 16.3402 39.2548 13.7113 37.2974C11.0824 35.34 9.11059 32.67 8.04526 29.625C6.97993 26.58 6.86891 23.2968 7.72624 20.1905C8.58357 17.0843 10.3707 14.2945 12.8618 12.1741C15.3528 10.0536 18.4358 8.69764 21.7208 8.27767C25.0059 7.85769 28.3455 8.39257 31.3174 9.81466C34.2892 11.2367 36.7598 13.4822 38.4167 16.267C40.6385 20.0012 41.2409 24.4391 40.0912 28.6043C38.9416 32.7696 36.1342 36.321 32.2866 38.4774Z" fill="#0E9384"/>
<path d="M34.2458 18.733C33.0717 16.7606 31.3214 15.1703 29.2161 14.1632C27.1108 13.1562 24.745 12.7776 22.418 13.0754C20.0911 13.3732 17.9073 14.3339 16.1429 15.8361C14.3785 17.3384 13.1127 19.3146 12.5055 21.515C11.8984 23.7154 11.9771 26.0411 12.7318 28.198C13.4865 30.355 14.8833 32.2463 16.7455 33.6328C18.6078 35.0194 20.8518 35.8389 23.1939 35.9878C25.536 36.1366 27.871 35.6081 29.9036 34.4691C32.6296 32.9412 34.6184 30.4249 35.4327 27.4738C36.247 24.5227 35.8201 21.3786 34.2458 18.733ZM27.4569 30.3626C26.2613 31.0326 24.8878 31.3436 23.5101 31.256C22.1325 31.1685 20.8125 30.6865 19.7171 29.8709C18.6217 29.0553 17.8001 27.9428 17.3562 26.6741C16.9122 25.4053 16.8659 24.0373 17.2231 22.743C17.5803 21.4487 18.325 20.2863 19.3629 19.4027C20.4008 18.5191 21.6853 17.9541 23.0541 17.779C24.4229 17.604 25.8144 17.8268 27.0528 18.4193C28.2911 19.0118 29.3205 19.9473 30.011 21.1076C30.936 22.664 31.1863 24.5132 30.707 26.2487C30.2276 27.9841 29.0579 29.4638 27.4548 30.3626H27.4569Z" fill="#0E9384"/>
<path d="M26.2354 23.1602C26.4874 23.5853 26.6039 24.0734 26.5702 24.5628C26.5364 25.0522 26.3539 25.5208 26.0457 25.9095C25.7376 26.2983 25.3176 26.5896 24.8388 26.7467C24.3601 26.9037 23.8441 26.9195 23.3561 26.7921C22.8681 26.6646 22.4301 26.3995 22.0972 26.0305C21.7644 25.6614 21.5519 25.2048 21.4864 24.7185C21.4209 24.2322 21.5055 23.7379 21.7294 23.2982C21.9533 22.8585 22.3065 22.4932 22.7444 22.2483C23.0353 22.0856 23.3563 21.9801 23.6892 21.9379C24.0222 21.8957 24.3604 21.9175 24.6846 22.0022C25.0088 22.0869 25.3126 22.2328 25.5787 22.4315C25.8448 22.6302 26.0679 22.8778 26.2354 23.1602Z" fill="#0E9384"/>
<path d="M81.9513 32.0381C81.8816 31.0997 81.7687 30.1553 81.6899 29.2109C81.6286 28.5912 81.5981 27.9715 81.5986 27.3518C81.5989 27.2697 81.5725 27.1897 81.5234 27.1229C81.4742 27.0561 81.4047 27.006 81.3247 26.9797C80.1945 26.5335 79.2874 25.6783 78.7949 24.5949C78.298 23.4757 78.0532 22.2664 78.0769 21.0479C78.077 20.9554 78.0479 20.8652 77.9936 20.7893C77.9392 20.7133 77.8623 20.6553 77.773 20.623C77.4863 20.5187 77.2069 20.3965 76.9365 20.257C76.751 20.1713 76.5721 20.0727 76.4012 19.9621C76.505 19.5311 76.6626 19.0291 76.8271 18.5095C77.1491 17.5062 77.5325 16.4441 77.8065 15.6532C78.0804 14.8624 78.2624 14.3252 78.2624 14.313L78.3537 11.8992C78.3576 11.8646 78.3545 11.8296 78.3443 11.7963C78.3342 11.7629 78.3173 11.7318 78.2946 11.7049C78.272 11.6779 78.244 11.6556 78.2124 11.6393C78.1808 11.6229 78.1461 11.6128 78.1104 11.6096C78.0371 11.6028 77.9639 11.6245 77.907 11.6699C77.85 11.7153 77.8139 11.7807 77.8065 11.8518L77.4538 14.1771L77.4412 14.2305C77.3715 14.3604 77.253 14.6364 77.101 15.0099C76.8877 15.5409 76.6131 16.2784 76.3405 17.0577C75.9763 18.0466 75.6656 19.0533 75.4099 20.0737C75.3938 20.1614 75.4035 20.2517 75.4379 20.3342C75.4723 20.4168 75.53 20.4883 75.6044 20.5405C75.885 20.7362 76.1805 20.911 76.4883 21.0634C76.7006 21.175 76.9199 21.2736 77.1449 21.3584C77.1369 22.8874 77.5644 24.3889 78.3802 25.697C78.9602 26.5641 79.7947 27.2425 80.7761 27.6447C80.8067 28.1934 80.8674 28.7366 80.9406 29.2853C81.08 30.2324 81.2508 31.1627 81.3846 32.101C81.397 32.1729 81.4373 32.2374 81.4972 32.2813C81.5571 32.3252 81.632 32.3452 81.7067 32.3371C81.7799 32.3288 81.8468 32.2927 81.8926 32.2366C81.9385 32.1806 81.9596 32.1092 81.9513 32.0381Z" fill="#0E1B1B"/>
<path d="M81.813 20.0821C81.7176 19.7406 81.5079 19.4396 81.217 19.2263C81.0244 19.0744 80.7785 19.0011 80.5313 19.0221C80.2841 19.043 80.055 19.1566 79.8925 19.3386C79.5617 19.7368 79.3703 20.2268 79.346 20.7377L79.376 21.216C79.4255 21.518 79.5177 21.8119 79.6499 22.0894C79.7183 22.2151 79.7956 22.3361 79.8814 22.4513C79.827 22.4926 79.5802 22.6827 79.5272 22.7341C79.4575 22.7815 78.9696 23.2219 79.0651 23.4425C79.2136 23.7449 79.9134 23.4939 79.9831 23.4607C80.3609 23.2704 80.7023 23.0187 80.9925 22.7165C81.2067 22.5127 81.4003 22.2893 81.5704 22.0495C81.7154 21.7909 81.8336 21.519 81.9231 21.2377C81.9465 20.8493 81.9093 20.4597 81.813 20.0821ZM80.4885 21.9135C80.2327 21.0388 80.1693 20.4826 80.5582 19.9759C80.576 19.954 80.5963 19.9343 80.6189 19.9171C80.6461 19.9269 80.6724 19.9389 80.6976 19.9529C80.8956 20.0864 81.0363 20.2857 81.0929 20.5131C81.1609 20.6768 81.2177 20.8448 81.263 21.0157C81.2709 21.0458 81.2708 21.0773 81.2626 21.1072C81.2544 21.1372 81.2385 21.1646 81.2163 21.1869L80.4885 21.9135Z" fill="#0E1B1B"/>
<path d="M83.6461 16.6095C83.4816 16.441 82.9351 16.6095 82.7455 16.7921C82.5895 16.9201 82.456 17.0718 82.3502 17.2413C82.3175 17.3131 82.1279 17.6513 82.3927 17.884C82.5363 18.0106 82.9225 17.9219 83.1533 17.6892C83.2685 17.5783 83.3761 17.4601 83.4753 17.3354C83.5297 17.2677 83.7806 16.784 83.6461 16.6095Z" fill="#0E1B1B"/>
<path d="M79.3279 14.5684C79.0603 14.5684 78.8477 14.9743 78.8477 15.483C78.8477 15.9918 79.0568 16.4038 79.3279 16.4038C79.5991 16.4038 79.8082 15.9911 79.8082 15.483C79.8082 14.975 79.5894 14.5684 79.3279 14.5684Z" fill="#0E1B1B"/>
<path d="M123.814 9.9856C123.744 9.66493 123.49 8.98163 123.157 9.05876C122.896 9.12979 122.937 10.012 122.944 10.0803C122.994 10.984 122.86 11.8884 122.549 12.7418C122.137 13.9115 122.031 14.0752 122.257 14.2173C122.645 14.4304 123.185 13.4379 123.372 13.0489C123.801 12.0849 123.953 11.0266 123.814 9.9856Z" fill="#0E1B1B"/>
<path d="M125.893 9.51096C125.748 9.08745 125.521 8.45963 125.187 8.53676C125.003 8.59426 124.913 8.70319 125.005 9.64085C125.122 10.6297 125.012 11.6316 124.683 12.5743C124.134 13.995 124.026 13.9524 124.257 14.1202C124.582 14.3569 125.03 13.6561 125.279 13.2704C125.918 12.1217 126.135 10.7954 125.893 9.51096Z" fill="#0E1B1B"/>
<path d="M116.339 16.2999C114.752 16.4298 113.177 15.3439 113.518 13.656C113.688 12.9725 114.065 12.354 114.6 11.8794C115.59 10.9924 116.684 10.2217 117.86 9.5833C120.608 7.88319 123.601 6.51998 126.271 4.70215C125.626 5.58164 124.823 6.36641 124.087 7.19313C122.592 8.88445 121.02 10.5805 119.404 12.1683C118.839 12.014 118.238 12.0327 117.683 12.2218C116.982 12.6008 116.448 13.2167 116.183 13.9525C115.919 14.6883 115.942 15.4929 116.248 16.2133" fill="#0E9384"/>
<path d="M94.8618 13.8507C94.9733 13.4574 94.9763 13.0426 94.8706 12.6478C94.7649 12.253 94.5542 11.8921 94.2595 11.6013C94.3347 11.2847 94.3411 10.9564 94.2782 10.6374C94.2153 10.3183 94.0845 10.0155 93.8942 9.74825C93.5423 9.24452 93.0193 8.87674 92.4164 8.7091C92.4856 8.0201 92.3653 7.32563 92.0679 6.69643C91.9012 6.34195 91.6508 6.03057 91.337 5.7875C91.0232 5.54444 90.6548 5.37652 90.2617 5.29736C90.1098 4.91677 89.8562 4.58227 89.527 4.3282C89.1979 4.07413 88.805 3.90964 88.3887 3.85162C88.0016 3.79116 87.6054 3.81713 87.2303 3.92756C86.8551 4.03799 86.5108 4.22997 86.2235 4.48891C85.6323 3.76253 84.812 3.24424 83.8883 3.0134C83.3764 2.93743 82.8529 2.99345 82.3703 3.17584C81.8878 3.35823 81.4631 3.66058 81.139 4.05255C80.7041 3.96711 80.2529 4.0071 79.8412 4.16759C79.4294 4.32809 79.0751 4.60206 78.8219 4.95572C78.3727 5.57217 78.1873 6.33364 78.3047 7.08002C77.9403 7.19284 77.6034 7.37668 77.3148 7.62027C77.0261 7.86387 76.7918 8.16209 76.6261 8.49667C76.4013 8.92217 76.3391 9.4112 76.4505 9.87699C76.5619 10.3428 76.8397 10.7552 77.2346 11.0411C77.4895 11.2534 77.7946 11.4013 78.1227 11.4714C78.4185 11.531 78.7209 11.5537 79.0227 11.539C79.1385 11.9444 79.3654 12.3117 79.6793 12.6018C79.9615 12.8603 80.293 13.0628 80.6552 13.1979C80.5604 13.7853 80.6672 14.3867 80.9592 14.9095C81.0989 15.1867 81.3339 15.4079 81.6236 15.5351C81.9133 15.6623 82.2396 15.6874 82.5464 15.6063C82.8054 15.5367 83.0773 15.5248 83.3417 15.5717C83.6061 15.6186 83.8561 15.7229 84.073 15.8769C84.2812 16.0265 84.4476 16.2241 84.5572 16.4519C84.6667 16.6796 84.716 16.9304 84.7004 17.1813C84.6837 17.4288 84.6151 17.6705 84.499 17.8914C84.3829 18.1124 84.2216 18.3082 84.0249 18.4667C83.6408 18.7998 83.1417 18.9809 82.6266 18.9741C82.503 18.9701 82.3825 19.0128 82.2906 19.0931C82.1987 19.1735 82.1425 19.2853 82.1337 19.405C82.107 19.8893 82.2298 20.3704 82.4865 20.7865C82.6682 21.0988 82.9247 21.3641 83.2344 21.5598C83.0349 22.247 83.0821 22.9796 83.3683 23.6374C83.6226 24.0828 84.0359 24.4228 84.5303 24.5933C84.598 24.9976 84.7764 25.3768 85.0469 25.6913C85.2388 25.8878 85.4712 26.0429 85.7289 26.1467C85.9866 26.2504 86.2639 26.3004 86.5428 26.2934C86.8348 26.2911 87.1245 26.2422 87.4002 26.1487V26.5837C87.4065 26.7711 87.5438 28.6545 87.5703 29.1545C87.5801 29.2512 87.6574 30.1287 87.7041 30.3824C87.9363 31.5758 87.9586 31.8822 88.2695 31.8457C88.5427 31.8139 88.5434 31.6103 88.5434 30.5177C88.4988 29.2539 88.4863 28.9028 88.4828 28.8216V28.8C88.4465 28.1911 88.3496 26.7616 88.2876 26.3273C88.266 26.2325 88.2423 25.9633 88.2179 25.7285C88.4955 25.5305 88.7358 25.2875 88.9282 25.0101C89.6381 24.841 90.2644 24.4357 90.6981 23.8647C90.9045 23.6082 91.0506 23.311 91.1262 22.994C91.2019 22.6769 91.2052 22.3477 91.1359 22.0293C91.6748 21.8056 92.1474 21.4543 92.5105 21.0077C92.9534 20.4982 93.212 19.8618 93.2466 19.196C93.8089 18.6964 94.1798 18.0264 94.2985 17.2956C94.3561 16.9738 94.3408 16.6437 94.2537 16.3283C94.1665 16.0128 94.0096 15.7196 93.7939 15.469C94.318 15.0534 94.6921 14.4866 94.8618 13.8507ZM81.5677 5.94751C81.4003 6.02161 81.2462 6.12119 81.1111 6.24247C80.9285 6.42571 80.793 6.64825 80.7159 6.89194C80.5564 7.30421 80.5415 7.756 80.6734 8.17735C80.6926 8.24421 80.6963 8.31439 80.6843 8.38283C80.6722 8.45126 80.6447 8.51625 80.6036 8.57311C80.5638 8.63254 80.5099 8.68193 80.4465 8.71721C80.3832 8.7525 80.3121 8.77267 80.2391 8.77607C79.8753 8.77881 79.5164 8.85725 79.1865 9.00609C79.0928 9.04842 79.0049 9.10206 78.9251 9.16575C78.8974 9.19442 78.8668 9.22026 78.8337 9.24288C78.728 9.35567 78.6512 9.49101 78.6093 9.63797C78.6109 9.67256 78.6053 9.7071 78.5929 9.73957C78.5805 9.77203 78.5615 9.80175 78.5371 9.82698C78.5127 9.8522 78.4833 9.87242 78.4507 9.88644C78.418 9.90046 78.3829 9.90798 78.3472 9.90858C78.2735 9.91012 78.202 9.88395 78.1477 9.83554C78.0934 9.78712 78.0605 9.72022 78.0558 9.6488C77.98 9.33975 78.0231 9.01447 78.1771 8.73413C78.2548 8.61435 78.3485 8.50515 78.4559 8.40939C78.8065 8.14681 79.2218 7.97793 79.6605 7.91959C79.604 7.4549 79.6774 6.98403 79.8731 6.55638C79.9623 6.37785 80.0747 6.21118 80.2077 6.06049C80.5194 5.71312 80.9484 5.485 81.4178 5.41711C81.4904 5.39827 81.5677 5.40818 81.6327 5.44465C81.6978 5.48113 81.7452 5.54119 81.7646 5.61161C81.784 5.68204 81.7738 5.75706 81.7363 5.82018C81.6987 5.8833 81.6368 5.92934 81.5642 5.94818L81.5677 5.94751ZM84.5763 4.98142C84.5484 5.04712 84.4982 5.10161 84.4341 5.13592C84.37 5.17023 84.2957 5.18232 84.2236 5.17018C83.7356 5.15259 83.4324 5.26218 82.9277 5.2473C82.7716 5.24189 82.6238 5.19385 82.5931 5.05246C82.5624 4.91107 82.6733 4.80485 82.7939 4.72773C83.027 4.58082 83.2958 4.49588 83.5734 4.4814C83.8509 4.46691 84.1275 4.52339 84.3756 4.64519C84.4418 4.67284 84.497 4.72051 84.5331 4.78109C84.5691 4.84168 84.584 4.91194 84.5756 4.98142H84.5763Z" fill="#0E1B1B"/>
<path d="M37.6468 11.0295C37.5249 9.64904 37.5553 8.25992 37.7375 6.88574C36.7615 9.07567 34.2283 13.1423 34.2283 13.1484C31.9538 14.7775 24.3883 19.6823 26.985 22.1259C27.2331 22.3028 27.5254 22.4125 27.8316 22.4435C28.1379 22.4745 28.4472 22.4259 28.7277 22.3025C32.066 21.0753 34.5657 15.3146 35.4963 14.0488C35.527 14.0191 40.0581 12.62 42.2713 11.7703C40.7447 11.4997 39.1881 11.2331 37.6496 11.1032" fill="#0E9384"/>
<path d="M43.3301 13.4865V13.4804C43.0485 13.0005 42.751 12.5355 42.4378 12.0854C42.4989 12.0522 42.5488 12.0026 42.5817 11.9427C42.6146 11.8827 42.629 11.8148 42.6233 11.7471C42.6146 11.673 42.5815 11.6035 42.5289 11.5491C42.4762 11.4947 42.4069 11.4584 42.3312 11.4454L41.9262 11.3777C40.8104 9.89896 39.5057 8.56364 38.0434 7.40381C38.0643 7.25091 38.0887 7.09892 38.1166 6.94783C38.1325 6.85798 38.1137 6.76562 38.064 6.68831C38.0142 6.611 37.9369 6.55415 37.8468 6.52858C37.7566 6.50301 37.6599 6.5105 37.5751 6.54964C37.4903 6.58877 37.4232 6.65681 37.3868 6.74081C37.3682 6.78005 37.3487 6.81996 37.3282 6.86056C32.786 3.50357 27.1204 1.90468 21.4317 2.3744C15.7429 2.84412 10.4371 5.34892 6.54449 9.40236C2.65192 13.4558 0.450469 18.7686 0.367658 24.3089C0.284847 29.8493 2.32659 35.2218 6.09637 39.3832C9.86616 43.5445 15.0949 46.1976 20.7672 46.8272C26.4396 47.4569 32.1506 46.0182 36.7912 42.7905C41.4318 39.5628 44.6708 34.7764 45.8792 29.361C47.0875 23.9456 46.179 18.2876 43.3301 13.4858V13.4865ZM41.0771 11.2397C40.5689 11.1612 40.0573 11.0882 39.538 11.0232C39.0033 10.9556 38.4561 10.8994 37.9207 10.8521C37.8901 10.2263 37.8901 9.59508 37.9026 8.96321C37.9172 8.69259 37.9347 8.41725 37.9584 8.14731C39.1044 9.07163 40.1495 10.1079 41.0771 11.2397ZM26.4189 22.1934C26.2976 22.2685 26.1484 22.3564 26.0473 22.4241C25.7011 22.0626 25.2631 21.7957 24.7772 21.6502C24.4015 21.5415 24.0072 21.5069 23.6175 21.5485C23.2278 21.5901 22.8507 21.7071 22.5083 21.8925C22.166 22.0779 21.8654 22.328 21.6242 22.628C21.3831 22.9279 21.2063 23.2718 21.1043 23.6391C21.0008 24.0106 20.9739 24.3983 21.0253 24.7798C21.0767 25.1614 21.2052 25.5294 21.4036 25.8625C21.6019 26.1957 21.8661 26.4876 22.1811 26.7214C22.496 26.9552 22.8555 27.1262 23.2388 27.2248C23.7954 27.3846 24.3888 27.3777 24.9413 27.2048C25.4937 27.0319 25.9796 26.7011 26.3351 26.2558C26.6907 25.8105 26.8994 25.2714 26.934 24.709C26.9686 24.1466 26.8274 23.5872 26.529 23.104C26.6329 22.9843 26.7953 22.7556 26.8817 22.6264C27.1875 22.7881 27.5268 22.881 27.8746 22.8981C28.2224 22.9152 28.5697 22.8561 28.8907 22.7252C29.3396 22.5538 29.7635 22.3264 30.1517 22.0486C30.488 22.938 30.6221 23.8873 30.5449 24.8317C30.4677 25.7761 30.1809 26.693 29.7042 27.5197C28.9381 28.8777 27.6862 29.9165 26.1849 30.4398C24.6836 30.9632 23.0368 30.935 21.5555 30.3604C20.0741 29.7859 18.8608 28.7049 18.1447 27.3215C17.4285 25.9381 17.2591 24.348 17.6684 22.8517C18.119 21.2249 19.2112 19.8357 20.7088 18.9843C22.2065 18.1329 23.9892 17.8878 25.6716 18.302C26.0877 18.4031 26.4929 18.5424 26.8817 18.7181C25.9455 19.9987 25.6493 21.2348 26.4189 22.1934ZM23.9923 24.7547C24.2182 24.9739 24.6998 24.6512 24.9717 24.4889C25.2241 24.2967 25.8619 23.7447 26.0975 23.5383C26.1941 23.8427 26.2239 24.1633 26.1851 24.4795C26.1463 24.7957 26.0398 25.1006 25.8723 25.3744C25.6416 25.7713 25.2819 26.0827 24.8494 26.26C24.4169 26.4372 23.936 26.4703 23.482 26.3541C22.9464 26.2144 22.4896 25.8746 22.2115 25.4089C21.9334 24.9433 21.8566 24.3896 21.9979 23.8692C22.1434 23.3399 22.4947 22.886 22.978 22.6031C23.4613 22.3202 24.0388 22.2303 24.589 22.3524C24.9396 22.4296 25.2671 22.5842 25.5461 22.8043C25.4109 22.9126 24.4587 23.7122 24.2962 23.905C24.1066 24.1438 23.7929 24.5504 23.9923 24.7547ZM27.3181 18.1714C26.8568 17.9326 26.3701 17.743 25.8668 17.6059C24.9303 17.3491 23.9507 17.2757 22.9847 17.3899C22.0188 17.5041 21.0859 17.8036 20.2404 18.271C19.3949 18.7384 18.6536 19.3644 18.0597 20.1124C17.4658 20.8605 17.0311 21.7158 16.781 22.6284C16.3062 24.3359 16.4944 26.1531 17.3098 27.7347C18.1252 29.3163 19.5109 30.552 21.2035 31.207C22.8962 31.862 24.7778 31.8906 26.4908 31.2874C28.2038 30.6842 29.6287 29.4912 30.4947 27.9351C31.0152 26.9739 31.2992 25.9087 31.3244 24.823C31.3495 23.7374 31.1152 22.6609 30.6397 21.6779C31.2976 21.1194 31.8917 20.4939 32.4117 19.812C32.8188 19.2884 33.1987 18.735 33.5486 18.1884C34.4652 19.5235 35.0714 21.0362 35.3253 22.6215C35.5791 24.2068 35.4746 25.8267 35.0188 27.3689C34.2078 30.1992 32.2864 32.6085 29.6666 34.08C27.0439 35.5492 23.9273 35.947 21.0024 35.186C18.0774 34.425 15.5838 32.5675 14.07 30.0222C12.5562 27.4768 12.1463 24.4521 12.9304 21.6135C13.7145 18.7748 15.6284 16.3547 18.2511 14.8855C20.1243 13.8256 22.2674 13.2997 24.4346 13.3683C26.6017 13.4369 28.705 14.0971 30.5031 15.2732C29.3475 16.1373 28.2809 17.1079 27.3181 18.1714ZM31.0531 14.8565C28.5262 13.0293 25.3908 12.1768 22.2537 12.4638C19.1165 12.7508 16.2005 14.157 14.07 16.4102C11.9394 18.6634 10.7458 21.6035 10.72 24.6615C10.6941 27.7196 11.838 30.6783 13.9302 32.965C16.0225 35.2518 18.9143 36.7041 22.0462 37.041C25.1781 37.3778 28.3274 36.5753 30.8848 34.7886C33.4422 33.0019 35.2258 30.3581 35.8906 27.3688C36.5553 24.3794 36.0539 21.257 34.4834 18.6058V18.5997C34.2952 18.2756 34.0923 17.9631 33.8776 17.662C34.7232 16.2792 35.3715 15.0019 35.7779 14.4086C35.9257 14.3558 36.1871 14.2685 36.53 14.1549C38.2188 16.1159 39.3883 18.4476 39.9369 20.9472C40.4856 23.4468 40.3967 26.0386 39.6781 28.4973C38.7379 31.7719 36.7326 34.664 33.9611 36.7427C31.1896 38.8213 27.8002 39.9752 24.2981 40.0324C20.7959 40.0896 17.3685 39.047 14.5265 37.06C11.6845 35.073 9.58013 32.248 8.52696 29.0059C7.47379 25.7639 7.5282 22.2783 8.6821 19.0687C9.83599 15.8591 12.0276 13.0973 14.9303 11.1947C17.833 9.29222 21.2914 8.35089 24.7902 8.51102C28.2889 8.67115 31.6407 9.92417 34.3461 12.0834C34.2506 12.239 34.1641 12.377 34.0903 12.4933C33.9989 12.653 33.9202 12.7714 33.8811 12.8417C33.2154 13.3072 32.1684 14.0182 31.0531 14.8544V14.8565ZM36.0491 13.4357C35.7389 13.5298 35.5255 13.5947 35.4217 13.6306C35.3103 13.6559 35.2116 13.7184 35.1429 13.8072C34.5468 14.598 33.3304 17.1715 31.6637 19.2728C30.8879 20.3959 29.8144 21.295 28.5561 21.8754C28.3568 21.9645 28.1377 22.004 27.9187 21.9906C27.6997 21.9771 27.4876 21.911 27.3014 21.7983C26.5081 21.0541 27.1138 19.9149 27.7893 19.0597C29.5167 16.8698 33.0683 14.5324 34.5036 13.5122C34.5552 13.4634 34.6019 13.4099 34.643 13.3525C34.6674 13.3058 34.7344 13.2111 34.8076 13.0697C35.1296 12.5556 35.7835 11.4697 36.4555 10.2716C36.7294 9.79331 36.9908 9.29741 37.2341 8.81369C37.246 9.55788 37.2947 10.3021 37.3735 11.0212C37.3735 11.0449 37.3547 11.0625 37.3547 11.0801C37.3512 11.1163 37.3552 11.1529 37.3666 11.1876C37.378 11.2223 37.3965 11.2544 37.4209 11.282C37.4454 11.3096 37.4754 11.3321 37.509 11.3482C37.5427 11.3643 37.5793 11.3737 37.6168 11.3757C38.2247 11.44 38.8388 11.5232 39.4592 11.6172C39.952 11.6944 40.4504 11.783 40.9433 11.8709C39.2647 12.4399 37.1135 13.0948 36.0491 13.4317V13.4357ZM44.8804 29.8206C43.6474 34.1497 41.0172 37.9813 37.3758 40.7532C33.7343 43.5251 29.2734 45.0913 24.6474 45.2222C20.0215 45.353 15.4742 44.0415 11.6726 41.48C7.87104 38.9186 5.01544 35.2422 3.52478 30.9901C2.03412 26.738 1.9869 22.1342 3.39004 17.8542C4.79317 13.5742 7.57279 9.84327 11.3211 7.2089C15.0693 4.57454 19.5889 3.17541 24.2166 3.21682C28.8443 3.25823 33.3365 4.73799 37.034 7.43899C36.8402 7.8077 36.6214 8.20617 36.3857 8.61547C35.8148 9.63432 35.1798 10.7127 34.6821 11.5354C31.3022 8.79007 26.9855 7.37286 22.5824 7.56299C18.1794 7.75311 14.0094 9.53679 10.8941 12.5625C7.7788 15.5883 5.94414 19.6367 5.75162 23.9101C5.5591 28.1834 7.02269 32.3718 9.85399 35.6499C12.6853 38.928 16.679 41.0581 21.0481 41.6204C25.4172 42.1828 29.845 41.1366 33.4588 38.6881C37.0727 36.2396 39.6106 32.5662 40.5724 28.3919C41.5343 24.2176 40.8504 19.845 38.6555 16.1358L38.6617 16.1297C38.2136 15.3654 37.7039 14.6367 37.1372 13.9506L37.6781 13.7726C38.9817 13.3349 40.6547 12.7579 41.8885 12.2938C43.6785 14.8247 44.8742 17.7061 45.3912 20.7345C45.9081 23.763 45.7338 26.8647 44.8804 29.8206Z" fill="#0E1B1B"/>
<path d="M12.1479 54.5509C11.784 54.1693 10.3313 52.8656 10.1473 52.7242C10.0455 52.6437 9.36795 52.1153 9.11352 52.3406C8.88348 52.5774 9.41884 53.2364 9.52061 53.3439C10.1607 53.9995 10.8454 54.6127 11.57 55.1793C12.4065 55.8146 12.7091 55.9662 12.8903 55.77C13.1127 55.5264 12.7091 55.1218 12.1479 54.5509Z" fill="#0E1B1B"/>
<path d="M12.8378 51.3712C12.5311 51.0885 11.5363 50.2888 11.2749 50.1021C11.0282 49.9424 10.4684 49.6055 10.2711 49.8186C10.0739 50.0317 10.4893 50.5689 10.6002 50.6866C11.1279 51.1688 11.6841 51.6205 12.2662 52.0397C12.6754 52.3312 13.3425 52.7967 13.5676 52.5531C13.8298 52.2649 12.9431 51.4484 12.8378 51.3712Z" fill="#0E1B1B"/>
<path d="M15.4618 49.564C14.6163 48.8229 13.7247 48.1329 12.792 47.4979C12.6219 47.3849 11.8439 46.9066 11.6425 47.1677C11.4013 47.4451 12.1158 48.054 12.4636 48.3537C12.6804 48.5309 14.5319 49.9476 14.58 49.9828C16.0257 51.1045 16.2586 51.1769 16.4287 50.9922C16.6817 50.7161 15.5991 49.6932 15.4618 49.564Z" fill="#0E1B1B"/>
<path d="M132.269 31.2373C131.262 27.6344 129.971 24.1119 128.407 20.701C127.799 19.2966 127.142 17.9158 126.485 16.5458C127.044 15.7076 127.429 14.7712 127.617 13.7896C127.813 12.7401 127.797 11.6634 127.568 10.6201C127.553 10.5509 127.512 10.49 127.451 10.4503C127.391 10.4106 127.318 10.3953 127.246 10.4077C127.173 10.4204 127.109 10.4604 127.067 10.5191C127.024 10.5779 127.008 10.6504 127.021 10.7209C127.18 11.6936 127.149 12.6866 126.929 13.6482C126.7 14.5993 126.269 15.4936 125.665 16.2745C125.626 16.3346 125.603 16.4026 125.596 16.4732C125.59 16.5437 125.601 16.6147 125.628 16.6804C126.285 18.1147 126.942 19.5726 127.568 21.0481C129.091 24.4299 130.361 27.9135 131.369 31.4721C132.311 34.8464 132.788 38.327 132.786 41.8229C132.791 43.5091 132.554 45.1878 132.081 46.8103C131.644 48.4313 130.883 49.9533 129.843 51.2903C127.946 53.7204 125.102 55.3934 121.274 56.0071C122.286 52.4338 122.362 48.6721 121.497 45.0628C121.046 43.0613 120.117 41.1908 118.783 39.6026C119.55 39.7284 119.963 39.7866 120.213 39.8218C120.264 39.8261 120.315 39.8199 120.363 39.8035C120.411 39.7872 120.455 39.7611 120.492 39.7271C120.533 39.6946 120.565 39.6531 120.587 39.6061C120.608 39.559 120.617 39.5077 120.614 39.4565C120.705 33.3589 119.711 26.0436 119.209 19.3297C119.202 19.2599 119.179 19.1925 119.141 19.133C119.103 19.0734 119.051 19.0233 118.99 18.9867C117.863 18.3962 117.02 17.4002 116.642 16.213C116.486 15.7049 116.439 15.1712 116.504 14.6449C116.569 14.1186 116.745 13.6108 117.02 13.153C117.195 12.9253 117.424 12.742 117.688 12.6185C117.951 12.4951 118.241 12.4352 118.534 12.444C118.802 12.4563 119.069 12.4921 119.331 12.5509C119.396 12.5629 119.463 12.5594 119.526 12.5408C119.59 12.5222 119.648 12.489 119.695 12.444C122.17 10.0606 125.848 5.95609 126.014 5.76261C126.089 5.67601 126.164 5.58739 126.237 5.49809C127.217 6.15536 128.393 6.48195 129.583 6.42764C128.66 7.30564 127.591 8.02591 126.421 8.55802C126.35 8.58274 126.293 8.63282 126.26 8.69777C126.227 8.76272 126.222 8.8375 126.244 8.90644C126.268 8.97359 126.317 9.02914 126.382 9.06115C126.448 9.09316 126.523 9.09906 126.593 9.0776C128.545 8.58644 129.84 7.53714 131.246 6.10899C131.315 6.03696 131.358 5.94527 131.369 5.84752C131.38 5.74977 131.358 5.65117 131.307 5.56634C131.256 5.48152 131.178 5.41498 131.084 5.37661C130.991 5.33823 130.888 5.33006 130.789 5.35331C129.394 5.63788 127.944 5.51909 126.619 5.01166L126.656 4.96025C126.722 4.87547 126.754 4.77097 126.748 4.66525C126.741 4.55953 126.697 4.4594 126.621 4.3826C126.546 4.3058 126.446 4.25727 126.337 4.24561C126.229 4.23395 126.119 4.25991 126.029 4.3189C126.057 4.0652 126.093 3.80947 126.135 3.55374C126.214 3.14038 126.299 2.73311 126.409 2.33193C126.513 1.91857 126.622 1.5113 126.757 1.12771C126.781 1.04117 126.778 0.949736 126.749 0.864721C126.72 0.779705 126.666 0.704843 126.593 0.649403C126.523 0.594718 126.437 0.562082 126.347 0.555802C126.257 0.549522 126.167 0.56989 126.089 0.614222C124.769 1.33261 123.609 2.29846 122.677 3.45564C122.218 3.99827 121.813 4.58126 121.466 5.19703C121.377 5.34813 121.296 5.50372 121.223 5.66316C121.102 5.92295 120.98 6.18815 120.87 6.46011C120.76 6.81055 120.631 7.16099 120.522 7.52429C119.522 8.07498 118.535 8.62771 117.608 9.20073C116.404 9.86265 115.283 10.6589 114.269 11.5733C113.68 12.1092 113.274 12.8077 113.108 13.5745C113.015 14.0743 113.077 14.5898 113.288 15.0547C113.136 15.144 112.944 15.2678 112.696 15.4221C112.089 15.8899 111.514 16.3966 110.975 16.9389C110.906 17.0065 110.404 17.6418 110.653 17.8596C110.868 18.0687 111.513 17.6215 111.583 17.5647C111.787 17.4158 113.047 16.311 113.281 16.0594C113.42 15.9233 113.55 15.7789 113.671 15.6271C113.765 15.7297 113.867 15.8248 113.977 15.9112C114.542 16.3489 115.245 16.5857 115.968 16.5823C116.364 17.8319 117.207 18.9033 118.344 19.6037C118.787 26.1897 119.522 31.7724 119.852 39.0756C119.464 39.0431 119.172 39.0424 118.122 38.9261C117.464 38.3195 116.701 37.8287 115.87 37.4756C112.105 35.9054 106.668 34.666 101.182 33.869C96.1873 33.0969 91.1313 32.7611 86.0748 32.8657C80.5116 33.2127 75.0682 34.5889 70.0377 36.9201C62.429 40.2967 55.3501 45.3727 49.5964 50.4785C49.5134 50.5461 49.4606 50.6424 49.4493 50.747C49.438 50.8516 49.469 50.9564 49.5357 51.0393C50.053 51.7046 50.5642 52.3791 51.0693 53.0628C47.7171 55.5105 42.781 58.6936 39.3151 60.8023C34.6844 59.2104 26.9279 55.0809 22.7545 52.6454C22.3774 52.4208 22.086 52.2496 21.9278 52.1434C21.7221 51.2341 21.3246 50.376 20.7601 49.6233C19.8733 48.5038 18.8728 47.4734 17.7738 46.5478C17.7479 46.5226 17.7171 46.5025 17.6832 46.4888C17.6493 46.4752 17.6129 46.4681 17.5762 46.4681C17.5395 46.4681 17.5031 46.4752 17.4692 46.4888C17.4353 46.5025 17.4045 46.5226 17.3786 46.5478C17.3529 46.5727 17.3327 46.6023 17.319 46.635C17.3054 46.6676 17.2986 46.7025 17.2992 46.7377C17.2997 46.7729 17.3075 46.8077 17.3221 46.8399C17.3367 46.8721 17.3578 46.9012 17.3842 46.9253C18.3841 47.889 19.2903 48.9403 20.0909 50.0658C20.5961 50.7789 20.9268 51.5945 21.0578 52.4505C21.0964 52.5993 21.1922 52.7281 21.3255 52.8105C21.453 52.8991 21.7326 53.0642 22.1041 53.3003C26.348 55.8203 34.3993 60.1332 39.2301 61.717C39.2935 61.7376 39.361 61.744 39.4273 61.7358C39.4937 61.7276 39.5573 61.705 39.6135 61.6696C43.7005 59.1768 47.6341 56.4546 51.3942 53.5168C53.8456 56.7955 55.9608 60.299 57.7097 63.9772C58.815 66.3414 59.6646 68.8104 60.245 71.3446C56.6958 73.6372 52.9016 75.5507 48.9286 77.0518C46.2788 78.0743 43.4484 78.5836 40.597 78.551C37.4936 78.365 34.4847 77.4415 31.8354 75.8618C27.7784 73.5711 24.2267 70.1952 20.9302 67.161C16.6522 63.2074 15.5794 62.1202 13.3648 59.9012C11.7469 58.2369 10.184 56.5314 8.73058 54.7189C8.71023 54.6904 8.68403 54.6662 8.65363 54.648C8.62322 54.6297 8.58926 54.6177 8.55387 54.6128C8.51847 54.6078 8.48241 54.61 8.44792 54.6192C8.41344 54.6284 8.38128 54.6444 8.35345 54.6662C8.29427 54.7071 8.25386 54.7688 8.24084 54.8381C8.22782 54.9075 8.24322 54.9791 8.28375 55.0376C9.67345 56.9191 11.1677 58.7259 12.7597 60.4498C15.0866 62.978 17.7216 65.4311 20.2826 67.8159C23.6161 70.9029 27.2465 74.3261 31.3663 76.6513C34.1466 78.3005 37.3029 79.2595 40.5559 79.4434C43.5252 79.4655 46.4693 78.9135 49.2165 77.8197C53.144 76.2586 56.8829 74.2832 60.3656 71.9292C60.479 72.4893 60.5775 73.0531 60.6612 73.6205C60.6684 73.6724 60.6888 73.7217 60.7205 73.764C60.7523 73.8063 60.7944 73.8402 60.8431 73.8627C60.8891 73.8841 60.9398 73.8942 60.9907 73.8921C61.0417 73.89 61.0913 73.8757 61.1352 73.8505C61.3666 73.7152 61.6099 73.5968 61.8323 73.4791C62.2457 73.2721 62.659 73.0894 63.0543 72.8885C63.0243 73.4256 63.0118 73.9628 62.9936 74.5C62.9448 75.5682 62.933 76.6365 62.9204 77.6993C62.9197 77.7348 62.9261 77.7701 62.9394 77.8033C62.9527 77.8364 62.9726 77.8666 62.9979 77.8923C63.0491 77.9441 63.1194 77.9741 63.1934 77.9756C63.2673 77.9772 63.3388 77.9501 63.3923 77.9004C63.4457 77.8508 63.4765 77.7825 63.4781 77.7108C63.5081 76.6547 63.5269 75.5858 63.5694 74.5176C63.6092 73.9337 63.6391 73.3533 63.6796 72.7708C64.3279 72.4548 67.0953 71.1376 67.4438 70.9265C68.35 70.4279 68.6351 70.2818 68.5145 70.0119C68.3856 69.725 68.0579 69.8089 67.5839 70.0295C65.3993 71.0341 64.9664 71.281 61.543 72.9237C61.4336 72.9771 61.3297 73.0306 61.2203 73.0833C60.7124 69.8409 59.7572 66.6795 58.3803 63.6843C56.2356 59.1367 53.5801 54.8327 50.4622 50.8506C56.1085 45.9038 63.0208 41.0226 70.4162 37.7415C75.3368 35.465 80.6605 34.1226 86.1006 33.7865C91.0996 33.6835 96.0982 34.0134 101.037 34.7722C106.438 35.563 111.796 36.7733 115.488 38.3192C118.735 39.6655 120.506 43.3932 121.022 47.5092C121.532 51.1791 120.983 54.9146 119.434 58.2991C117.37 58.049 115.293 57.911 113.213 57.8858C113.155 57.8847 113.098 57.8958 113.046 57.9182C112.993 57.9406 112.946 57.9739 112.908 58.0157C112.834 58.0971 112.795 58.2028 112.799 58.3113C113.133 62.4666 113.608 66.6096 113.973 70.7594C114.064 71.7918 114.155 72.831 114.234 73.8715C114.235 73.9063 114.243 73.9406 114.259 73.9722C114.274 74.0038 114.295 74.032 114.322 74.0553C114.349 74.0785 114.38 74.0962 114.414 74.1073C114.448 74.1184 114.484 74.1226 114.52 74.1198C114.556 74.1184 114.591 74.1101 114.624 74.0954C114.657 74.0806 114.686 74.0598 114.71 74.034C114.735 74.0082 114.754 73.978 114.766 73.9451C114.778 73.9123 114.784 73.8773 114.782 73.8424C114.416 67.5716 113.971 63.7154 113.638 58.6881C115.642 58.7382 117.774 58.9736 119.647 59.1901C119.736 59.2012 119.826 59.1857 119.905 59.1455C119.985 59.1054 120.05 59.0425 120.091 58.9655C120.493 58.2031 120.829 57.4093 121.094 56.5923C125.268 56.0828 128.409 54.3719 130.499 51.7889C131.63 50.3858 132.463 48.7789 132.949 47.0613C133.45 45.3642 133.708 43.6084 133.716 41.8433C133.733 38.2605 133.246 34.6924 132.269 31.2373ZM121.617 6.63127C121.8 6.34239 121.982 6.06434 122.152 5.78764C122.67 4.94064 123.273 4.14564 123.952 3.41438C124.45 2.88354 125.003 2.40301 125.601 1.98013C125.522 2.32667 125.465 2.67754 125.431 3.03079C125.366 3.60039 125.349 4.1742 125.381 4.74646C124.108 5.5583 122.727 6.31939 121.352 7.07304C121.443 6.92353 121.533 6.7774 121.617 6.63127ZM115.865 13.8458C115.652 14.4944 115.633 15.1881 115.809 15.8469C115.816 15.9024 115.823 15.9586 115.833 16.0134C115.316 15.9538 114.832 15.7388 114.447 15.3984C114.214 15.1923 114.043 14.9286 113.951 14.6354C113.86 14.3422 113.853 14.0304 113.93 13.7335C114.108 13.1395 114.451 12.6047 114.921 12.1876C115.895 11.3342 116.964 10.5896 118.109 9.96791C120 8.79955 122.001 7.79558 123.923 6.69216C122.624 8.20691 120.684 10.3089 119.252 11.7445C118.951 11.6962 118.645 11.6803 118.34 11.6971C117.754 11.7766 117.206 12.0233 116.765 12.4059C116.325 12.7885 116.011 13.2897 115.865 13.8458Z" fill="#0E1B1B"/>
</svg>
