<svg id="SvgjsSvg1032" width="288" height="288" xmlns="http://www.w3.org/2000/svg" version="1.1" xmlns:xlink="http://www.w3.org/1999/xlink" xmlns:svgjs="http://svgjs.com/svgjs"><defs id="SvgjsDefs1033"></defs><g id="SvgjsG1034"><svg xmlns="http://www.w3.org/2000/svg" data-name="Layer 1" viewBox="0 0 512 512" width="288" height="288"><path d="M436.018 40.46A29.708 29.708 0 0 0 413.37 30h-25.647c-.28-2.522-.587-4.968-.917-7.312A26.538 26.538 0 0 0 360.62 0H151.38a26.538 26.538 0 0 0-26.185 22.689c-.33 2.344-.636 4.79-.917 7.311H98.63a29.759 29.759 0 0 0-29.374 34.495l5.62 34.818A156.472 156.472 0 0 0 188.737 225.59a254.928 254.928 0 0 0 32.964 29.657 24.986 24.986 0 0 0 4.29 45.43 104.363 104.363 0 0 1-8.466 31.714c-12.043 26.951-33.02 42.38-45.508 49.609H169a17.52 17.52 0 0 0-17.5 17.5V462H139a17.52 17.52 0 0 0-17.5 17.5v15A17.52 17.52 0 0 0 139 512h234a17.52 17.52 0 0 0 17.5-17.5v-15A17.52 17.52 0 0 0 373 462h-12.5v-62.5A17.52 17.52 0 0 0 343 382h-3.017c-12.489-7.23-33.465-22.658-45.508-49.61a104.356 104.356 0 0 1-8.466-31.713 24.986 24.986 0 0 0 4.29-45.43 254.928 254.928 0 0 0 32.964-29.657A156.472 156.472 0 0 0 437.124 99.315l5.62-34.822a29.716 29.716 0 0 0-6.726-24.033ZM89.685 96.925l-5.62-34.818A14.76 14.76 0 0 1 98.63 45h24.434a246.193 246.193 0 0 0 20.582 112.547 242.246 242.246 0 0 0 26.276 45.343A141.527 141.527 0 0 1 89.685 96.925ZM373 477a2.503 2.503 0 0 1 2.5 2.5v15a2.503 2.503 0 0 1-2.5 2.5H139a2.503 2.503 0 0 1-2.5-2.5v-15a2.503 2.503 0 0 1 2.5-2.5Zm-35.03-80 .023.001.022-.001H343a2.503 2.503 0 0 1 2.5 2.5V462h-179v-62.5a2.503 2.503 0 0 1 2.5-2.5h4.985l.022.001.023-.001Zm-23.994-15H198.024a121.487 121.487 0 0 0 33.197-43.49 119.31 119.31 0 0 0 9.73-36.51h30.098a119.304 119.304 0 0 0 9.73 36.51A121.484 121.484 0 0 0 313.976 382ZM278 287h-44a10 10 0 0 1 0-20h6.65c.234.01.468.011.7 0h29.428c.076.002.152.014.229.014.068 0 .136-.012.204-.014H278a10 10 0 0 1 0 20Zm-9.186-35h-25.628c-22.526-14.65-61.86-46.354-85.824-100.521-22.055-49.857-21.59-96.415-17.315-126.693A11.47 11.47 0 0 1 151.379 15H360.62a11.468 11.468 0 0 1 11.331 9.786c4.276 30.278 4.741 76.836-17.314 126.693-23.964 54.167-63.298 85.87-85.824 100.521ZM427.936 62.104l-5.62 34.823a141.528 141.528 0 0 1-80.238 105.963 242.246 242.246 0 0 0 26.276-45.343A246.192 246.192 0 0 0 388.936 45h24.434a14.759 14.759 0 0 1 14.566 17.104Z" fill="#7a2ddf" class="color000 svgShape"></path></svg></g></svg>