<svg width="17" height="20" viewBox="0 0 17 20" fill="none" xmlns="http://www.w3.org/2000/svg">
<path d="M17 8.64616C17 12.9968 13.5302 16.6679 9.14078 16.9644C4.68884 17.2638 0.768309 14.1946 0.0967358 9.88133C-0.547611 5.74538 2.08725 1.769 6.20341 0.670742C6.48172 0.596868 6.73784 0.521025 6.9133 0.257049C7.06052 0.0344423 7.32976 0.00489274 7.58991 0.00489274C8.0941 0.00489274 8.59727 0.0127726 9.10146 0.00193778C9.54917 -0.00791206 9.96865 0.00390777 10.255 0.433361C10.377 0.616568 10.6392 0.619523 10.8469 0.676652C14.5073 1.68823 17.001 4.91701 17 8.64616ZM16.3587 8.62843C16.3536 5.33169 14.227 2.43091 11.0537 1.40259C9.88395 1.02337 10.1431 1.10808 9.69942 2.03593C9.52598 2.39841 9.60766 2.53039 10.012 2.63086C13.3729 3.46416 15.4179 6.63187 14.7463 9.92861C14.0899 13.1505 10.8822 15.3066 7.48706 14.8082C4.64044 14.3906 2.32926 11.9291 2.14372 9.11797C1.95314 6.23689 3.86198 3.51538 6.63802 2.71163C7.20942 2.54615 7.37749 2.19025 7.1422 1.64391C7.13615 1.62913 7.12707 1.61436 7.12304 1.5986C7.0222 1.20657 6.78423 1.1524 6.40407 1.25287C2.74975 2.22406 0.286309 5.71583 0.673522 9.39771C1.07586 13.2194 4.26432 16.1852 8.14351 16.3438C12.6539 16.528 16.3657 13.0421 16.3587 8.62843ZM7.00002 9.65971C6.97884 9.40755 6.83061 9.43021 6.67129 9.47256C5.56915 9.76313 4.467 10.0567 3.36385 10.3433C3.1057 10.4103 3.10873 10.56 3.19041 10.753C3.39511 11.2416 3.6593 11.6947 3.99307 12.1123C4.17256 12.3369 4.30163 12.3428 4.50734 12.1369C5.26966 11.3736 6.04812 10.625 6.81851 9.86951C6.88809 9.80155 6.94658 9.72176 6.99901 9.65971H7.00002ZM10.3125 9.45976C10.1371 9.43513 10.0594 9.45779 10.0261 9.54939C9.97571 9.68631 10.0806 9.76215 10.1613 9.84193C10.6705 10.3423 11.1555 10.8712 11.702 11.3293C12.0822 11.6484 12.3302 12.3832 12.8677 12.199C13.3376 12.0375 13.5292 11.3726 13.7702 10.8821C13.9305 10.5551 13.8852 10.3827 13.4919 10.2911C12.7245 10.1118 11.9672 9.89414 11.2049 9.6932C10.8812 9.60751 10.5565 9.52378 10.3125 9.45976ZM8.6245 14.2724C8.73139 14.2596 8.96432 14.2054 9.19624 14.2084C9.6248 14.2133 9.64799 14.0163 9.55119 13.6784C9.27792 12.7319 9.03087 11.7784 8.76265 10.8309C8.71828 10.6733 8.74147 10.4152 8.48837 10.427C8.28065 10.4359 8.29174 10.6683 8.2504 10.8161C8.03057 11.5893 7.81881 12.3655 7.61008 13.1426C7.40841 13.8938 7.74688 14.2708 8.62551 14.2734L8.6245 14.2724ZM7.69983 6.93524C7.38824 5.81335 7.07968 4.69342 6.76507 3.57546C6.71869 3.41097 6.59163 3.39225 6.44643 3.45332C5.90695 3.67987 5.38764 3.93991 4.9248 4.29943C4.75237 4.43338 4.74229 4.54961 4.89657 4.70031C5.71536 5.49618 6.53012 6.295 7.3469 7.09186C7.41849 7.16179 7.50824 7.2396 7.60504 7.15982C7.65848 7.1155 7.66655 7.01897 7.69983 6.93524ZM9.33943 6.82788C9.33137 6.9776 9.29204 7.1086 9.42212 7.17262C9.56027 7.24059 9.63589 7.11648 9.71455 7.03965C10.5091 6.26742 11.2987 5.48929 12.0953 4.71804C12.2687 4.5506 12.2556 4.43141 12.064 4.28367C11.6254 3.9468 11.1343 3.70548 10.6322 3.47893C10.4275 3.38634 10.2823 3.40013 10.2157 3.64441C9.92227 4.71804 9.62581 5.79069 9.33943 6.82788ZM2.77496 8.76436C2.77799 8.82149 2.77698 9.00273 2.80017 9.18101C2.87277 9.75919 2.92924 9.79662 3.49493 9.65085C4.4186 9.41248 5.34327 9.17313 6.26391 8.92294C6.43029 8.87763 6.69348 8.88453 6.70356 8.66586C6.71364 8.42848 6.44441 8.45409 6.28206 8.41075C5.49049 8.19701 4.69489 7.99706 3.9003 7.79119C3.15612 7.59814 2.78101 7.92253 2.77496 8.76436ZM14.233 8.71413C14.233 8.71413 14.2411 8.71413 14.2451 8.71413C14.228 8.50235 14.2028 8.29058 14.1967 8.07783C14.1836 7.64936 14.0213 7.51638 13.5655 7.6533C12.6368 7.93205 11.6889 8.15268 10.7511 8.40386C10.5817 8.44916 10.3105 8.43439 10.3044 8.64321C10.2974 8.89339 10.5908 8.8796 10.7703 8.92885C11.5609 9.14555 12.3585 9.33959 13.1511 9.55333C14.1786 9.83011 14.2219 9.80253 14.234 8.76436C14.234 8.74762 14.234 8.73186 14.234 8.71511L14.233 8.71413ZM6.50088 13.8951C6.74389 13.9434 6.76003 13.774 6.79935 13.6361C7.09077 12.596 7.38118 11.5558 7.66453 10.5137C7.69579 10.3984 7.77646 10.2448 7.60605 10.166C7.47496 10.1049 7.38925 10.2172 7.30858 10.295C6.51399 11.0673 5.72141 11.8415 4.93085 12.6176C4.84211 12.7053 4.69187 12.8107 4.84211 12.9427C5.33319 13.3721 5.88981 13.6981 6.50088 13.8951ZM9.33842 10.5127C9.61774 11.5125 9.92933 12.6314 10.2439 13.7504C10.3024 13.9602 10.4537 13.9168 10.6049 13.8646C11.1474 13.6755 11.6244 13.377 12.0741 13.0323C12.2092 12.9289 12.2889 12.8245 12.1346 12.6738C11.3057 11.8661 10.4779 11.0564 9.64799 10.2487C9.57741 10.1798 9.49371 10.1089 9.38279 10.1739C9.29809 10.2231 9.30313 10.3078 9.33842 10.5137V10.5127ZM6.94053 7.66807C6.91935 7.62966 6.90523 7.57844 6.87196 7.54495C6.0572 6.74022 5.24143 5.93745 4.42364 5.13568C4.25928 4.97414 4.13021 5.04309 4.01122 5.1997C3.68047 5.63703 3.40116 6.10293 3.18436 6.60429C3.10066 6.79636 3.14402 6.92539 3.35376 6.98055C4.45591 7.27309 5.55805 7.56465 6.66121 7.85029C6.79835 7.88575 6.9375 7.86999 6.94153 7.66709L6.94053 7.66807ZM10.3639 7.8562C11.4449 7.5676 12.5793 7.27112 13.7107 6.95888C13.9436 6.89486 13.8731 6.71165 13.8035 6.55307C13.6028 6.09899 13.3386 5.68234 13.0583 5.27161C12.8576 4.97611 12.6832 5.01452 12.4644 5.23516C12.0207 5.68234 11.571 6.1246 11.1222 6.56784C10.8147 6.87122 10.5041 7.17066 10.1986 7.476C10.1179 7.55677 10.0261 7.6464 10.0907 7.77741C10.134 7.86507 10.2228 7.86408 10.3649 7.85719L10.3639 7.8562ZM7.41043 3.4415C7.41748 3.47401 7.42656 3.53902 7.4437 3.60206C7.71999 4.59689 7.99528 5.59172 8.27863 6.5836C8.31594 6.71362 8.30081 6.9185 8.5045 6.9185C8.7092 6.9185 8.69408 6.71362 8.73139 6.5836C9.00465 5.62226 9.27389 4.65993 9.53102 3.69366C9.57539 3.52818 9.75891 3.29376 9.47758 3.18738C9.15591 3.06622 9.16297 3.38733 9.06415 3.55379C9.0218 3.62373 8.9986 3.70449 8.95625 3.77541C8.7092 4.18517 8.2988 4.18714 8.0578 3.77541C7.96704 3.61979 7.90654 3.44741 7.82789 3.28489C7.76638 3.15684 7.65647 3.14601 7.53042 3.17851C7.40135 3.212 7.39127 3.30262 7.41143 3.44052L7.41043 3.4415ZM9.59455 8.63139C9.58547 8.04926 9.09944 7.60306 8.48434 7.61193C7.87427 7.62079 7.40438 8.08669 7.41648 8.67276C7.42858 9.26572 7.90352 9.73162 8.50148 9.73457C9.11658 9.73752 9.60463 9.24602 9.59455 8.63139ZM8.44199 3.06622C8.48434 3.06622 8.52669 3.06622 8.56803 3.06524C8.86247 2.37378 9.15591 1.68134 9.45338 0.989877C9.56026 0.740676 9.49875 0.623463 9.20532 0.629373C8.73744 0.638238 8.26855 0.635283 7.79965 0.629373C7.56168 0.626418 7.43664 0.699307 7.54151 0.947523C7.83898 1.65474 8.14149 2.35999 8.44199 3.06622Z" fill="#7DA3BA"/>
<path d="M8.50551 19.4258C6.28811 19.4258 4.0697 19.4268 1.8523 19.4258C1.12628 19.4258 1.08897 19.3411 1.03149 18.6319C0.971999 17.9001 1.17065 17.3278 1.77264 16.8659C2.12658 16.594 2.42001 16.2463 2.74572 15.938C2.89294 15.7981 3.06537 15.7381 3.23377 15.9016C3.40216 16.0661 3.34065 16.2345 3.19646 16.3773C2.79714 16.7762 2.41094 17.1899 1.98339 17.5593C1.61937 17.8735 1.74138 18.2419 1.77668 18.6073C1.78978 18.7393 1.91381 18.7836 2.03986 18.7915C2.1407 18.7974 2.24153 18.8004 2.34237 18.8004C6.47567 18.8004 10.608 18.8004 14.7413 18.8004C15.0297 18.8004 15.3483 18.8496 15.2696 18.3867C15.2343 18.1759 15.1436 18.0547 14.9177 18.0498C14.7665 18.0469 14.6152 18.0429 14.464 18.0429C10.9024 18.0429 7.34085 18.0459 3.77829 18.036C3.45561 18.036 2.91613 18.1808 2.91411 17.7139C2.91109 17.1958 3.46872 17.3682 3.80047 17.3672C7.24505 17.3554 10.6886 17.3603 14.1332 17.3564C14.2925 17.3564 14.5214 17.4401 14.595 17.2746C14.6717 17.1023 14.4367 17.0156 14.3319 16.9003C14.1433 16.6915 13.9275 16.5054 13.741 16.2956C13.6089 16.1478 13.5615 15.9656 13.7389 15.8149C13.8983 15.6799 14.0626 15.7499 14.1897 15.872C14.7281 16.3901 15.2696 16.9062 15.7879 17.4431C16.0068 17.6686 16.0501 18.953 15.8878 19.2111C15.7244 19.4692 15.4542 19.4258 15.2081 19.4258C12.9736 19.4288 10.739 19.4278 8.5045 19.4278L8.50551 19.4258Z" fill="#7DA3BA"/>
</svg>
