<svg width="24" height="24" viewBox="0 0 24 24" fill="none" xmlns="http://www.w3.org/2000/svg">
<path d="M9.25 9.75C9.25 9.55109 9.32902 9.36032 9.46967 9.21967C9.61032 9.07902 9.80109 9 10 9H16C16.1989 9 16.3897 9.07902 16.5303 9.21967C16.671 9.36032 16.75 9.55109 16.75 9.75C16.75 9.94891 16.671 10.1397 16.5303 10.2803C16.3897 10.421 16.1989 10.5 16 10.5H10C9.80109 10.5 9.61032 10.421 9.46967 10.2803C9.32902 10.1397 9.25 9.94891 9.25 9.75ZM10 13.5H16C16.1989 13.5 16.3897 13.421 16.5303 13.2803C16.671 13.1397 16.75 12.9489 16.75 12.75C16.75 12.5511 16.671 12.3603 16.5303 12.2197C16.3897 12.079 16.1989 12 16 12H10C9.80109 12 9.61032 12.079 9.46967 12.2197C9.32902 12.3603 9.25 12.5511 9.25 12.75C9.25 12.9489 9.32902 13.1397 9.46967 13.2803C9.61032 13.421 9.80109 13.5 10 13.5ZM22.75 5.25V17.25C22.75 17.6478 22.592 18.0294 22.3107 18.3107C22.0294 18.592 21.6478 18.75 21.25 18.75H15.6747L14.2834 21.0272C14.1495 21.2484 13.9607 21.4312 13.7353 21.5579C13.5099 21.6846 13.2556 21.7509 12.997 21.7503C12.7384 21.7497 12.4844 21.6823 12.2596 21.5547C12.0347 21.427 11.8467 21.2433 11.7137 21.0216L10.3253 18.75H4.75C4.35218 18.75 3.97064 18.592 3.68934 18.3107C3.40804 18.0294 3.25 17.6478 3.25 17.25V5.25C3.25 4.85218 3.40804 4.47064 3.68934 4.18934C3.97064 3.90804 4.35218 3.75 4.75 3.75H21.25C21.6478 3.75 22.0294 3.90804 22.3107 4.18934C22.592 4.47064 22.75 4.85218 22.75 5.25ZM21.25 5.25H4.75V17.25H10.3253C10.5835 17.2507 10.8373 17.3177 11.0622 17.4446C11.2871 17.5715 11.4756 17.754 11.6097 17.9747L13 20.25L14.3894 17.97C14.5241 17.75 14.713 17.5682 14.938 17.4422C15.1631 17.3161 15.4167 17.2499 15.6747 17.25H21.25V5.25Z" fill="#233138"/>
</svg>
