<svg width="40" height="40" viewBox="0 0 40 40" fill="none" xmlns="http://www.w3.org/2000/svg">
<path d="M28.6859 33.3546C28.7908 33.6691 28.7664 34.0124 28.6181 34.309C28.4698 34.6055 28.2098 34.831 27.8953 34.9359C27.5808 35.0407 27.2375 35.0163 26.9409 34.868C26.6444 34.7198 26.4189 34.4598 26.3141 34.1452L25.0641 30.3952C25.0121 30.2395 24.9914 30.0751 25.0031 29.9113C25.0147 29.7476 25.0585 29.5877 25.1319 29.4409C25.2053 29.294 25.3069 29.1631 25.4309 29.0555C25.555 28.948 25.6989 28.8659 25.8547 28.814C26.0104 28.7621 26.1749 28.7413 26.3386 28.753C26.5024 28.7646 26.6622 28.8084 26.8091 28.8818C26.9559 28.9552 27.0868 29.0568 27.1944 29.1809C27.3019 29.3049 27.384 29.4489 27.4359 29.6046L28.6859 33.3546ZM20 28.7499C19.6685 28.7499 19.3505 28.8816 19.1161 29.116C18.8817 29.3505 18.75 29.6684 18.75 29.9999V34.9999C18.75 35.3314 18.8817 35.6494 19.1161 35.8838C19.3505 36.1182 19.6685 36.2499 20 36.2499C20.3315 36.2499 20.6495 36.1182 20.8839 35.8838C21.1183 35.6494 21.25 35.3314 21.25 34.9999V29.9999C21.25 29.6684 21.1183 29.3505 20.8839 29.116C20.6495 28.8816 20.3315 28.7499 20 28.7499ZM14.1453 28.814C13.9896 28.7621 13.8251 28.7413 13.6614 28.7529C13.4976 28.7646 13.3378 28.8084 13.1909 28.8818C13.0441 28.9552 12.9132 29.0568 12.8056 29.1808C12.698 29.3049 12.616 29.4489 12.5641 29.6046L11.3141 33.3546C11.2092 33.6691 11.2336 34.0124 11.3819 34.309C11.5302 34.6055 11.7902 34.831 12.1047 34.9359C12.4192 35.0407 12.7625 35.0163 13.0591 34.868C13.3556 34.7198 13.5811 34.4598 13.6859 34.1452L14.9359 30.3952C14.9879 30.2395 15.0086 30.0751 14.997 29.9113C14.9853 29.7475 14.9416 29.5877 14.8681 29.4408C14.7947 29.294 14.6931 29.1631 14.5691 29.0555C14.4451 28.948 14.3011 28.8659 14.1453 28.814ZM38.75 17.4999C38.75 20.0343 36.6609 22.3265 32.8672 23.9515C29.4094 25.4343 24.8438 26.2499 20 26.2499C15.1562 26.2499 10.5906 25.4343 7.13281 23.9515C3.33906 22.3265 1.25 20.0343 1.25 17.4999C1.25 16.1921 1.82344 14.2515 4.55781 12.4218C6.33437 11.2327 8.76719 10.2718 11.6172 9.63273C12.4119 8.37352 13.4794 7.30887 14.7406 6.51739C16.0019 5.7259 17.4248 5.22779 18.9044 5.05981C20.3839 4.89184 21.8823 5.05829 23.2889 5.54688C24.6955 6.03547 25.9744 6.83373 27.0312 7.88273C27.5703 8.41614 28.0478 9.00839 28.4547 9.64836C34.9109 11.1077 38.75 14.0218 38.75 17.4999ZM12.5 15.1296V15.5984C12.4984 15.8791 12.5924 16.1521 12.7664 16.3725C12.9405 16.5928 13.1843 16.7474 13.4578 16.8109C15.6059 17.2845 17.8004 17.5156 20 17.4999C22.1984 17.5176 24.3918 17.2886 26.5391 16.8171C26.813 16.754 27.0574 16.5996 27.232 16.3793C27.4066 16.1589 27.5011 15.8857 27.5 15.6046V14.9999C27.5001 14.0065 27.3028 13.023 26.9197 12.1065C26.5365 11.19 25.9751 10.3587 25.2681 9.66095C24.561 8.96319 23.7224 8.41284 22.8008 8.04186C21.8793 7.67089 20.8933 7.48667 19.9 7.49992C15.8203 7.55304 12.5 10.9765 12.5 15.1296ZM36.25 17.4999C36.25 15.6718 33.6516 13.7671 29.7031 12.564C29.9007 13.3609 30.0004 14.1789 30 14.9999V15.6124C30.0013 16.4582 29.7149 17.2793 29.1879 17.9409C28.661 18.6025 27.9247 19.0652 27.1 19.253C24.7688 19.767 22.3872 20.0176 20 19.9999C17.6128 20.0174 15.2313 19.7669 12.9 19.253C12.0753 19.0652 11.339 18.6025 10.8121 17.9409C10.2851 17.2793 9.99872 16.4582 10 15.6124V15.1343C10.0003 14.2632 10.1121 13.3957 10.3328 12.553C6.3625 13.7499 3.75 15.664 3.75 17.4999C3.75 20.4562 10.4234 23.7499 20 23.7499C29.5766 23.7499 36.25 20.4562 36.25 17.4999Z" fill="white"/>
</svg>
