<svg width="40" height="40" viewBox="0 0 40 40" fill="none" xmlns="http://www.w3.org/2000/svg">
<path d="M30.872 20.1656L22.8079 17.1969L19.8392 9.12656C19.6634 8.64895 19.3453 8.23676 18.9279 7.9456C18.5104 7.65445 18.0137 7.49834 17.5048 7.49834C16.9958 7.49834 16.4992 7.65445 16.0817 7.9456C15.6643 8.23676 15.3462 8.64895 15.1704 9.12656L12.1985 17.1875L4.12823 20.1562C3.65062 20.3321 3.23842 20.6501 2.94727 21.0676C2.65611 21.485 2.5 21.9817 2.5 22.4906C2.5 22.9996 2.65611 23.4963 2.94727 23.9137C3.23842 24.3311 3.65062 24.6492 4.12823 24.825L12.1876 27.8125L15.1564 35.8781C15.3322 36.3557 15.6502 36.7679 16.0677 37.0591C16.4851 37.3502 16.9818 37.5064 17.4907 37.5064C17.9997 37.5064 18.4964 37.3502 18.9138 37.0591C19.3312 36.7679 19.6493 36.3557 19.8251 35.8781L22.7939 27.8141L30.8642 24.8453C31.3418 24.6695 31.754 24.3514 32.0451 23.934C32.3363 23.5166 32.4924 23.0199 32.4924 22.5109C32.4924 22.002 32.3363 21.5053 32.0451 21.0879C31.754 20.6704 31.3418 20.3524 30.8642 20.1766L30.872 20.1656ZM21.936 25.4688C21.5982 25.5927 21.2915 25.7887 21.037 26.0432C20.7826 26.2976 20.5866 26.6044 20.4626 26.9422L17.4939 34.9828L14.5314 26.9359C14.4073 26.5999 14.2119 26.2948 13.9586 26.0415C13.7053 25.7882 13.4002 25.5928 13.0642 25.4688L5.02354 22.5L13.0642 19.5312C13.4002 19.4072 13.7053 19.2118 13.9586 18.9585C14.2119 18.7052 14.4073 18.4001 14.5314 18.0641L17.5001 10.0234L20.4689 18.0641C20.5928 18.4019 20.7889 18.7086 21.0433 18.9631C21.2977 19.2175 21.6045 19.4135 21.9423 19.5375L29.9829 22.5062L21.936 25.4688ZM22.5001 6.25C22.5001 5.91848 22.6318 5.60054 22.8662 5.36612C23.1006 5.1317 23.4186 5 23.7501 5H26.2501V2.5C26.2501 2.16848 26.3818 1.85054 26.6162 1.61612C26.8506 1.3817 27.1686 1.25 27.5001 1.25C27.8316 1.25 28.1496 1.3817 28.384 1.61612C28.6184 1.85054 28.7501 2.16848 28.7501 2.5V5H31.2501C31.5816 5 31.8996 5.1317 32.134 5.36612C32.3684 5.60054 32.5001 5.91848 32.5001 6.25C32.5001 6.58152 32.3684 6.89946 32.134 7.13388C31.8996 7.3683 31.5816 7.5 31.2501 7.5H28.7501V10C28.7501 10.3315 28.6184 10.6495 28.384 10.8839C28.1496 11.1183 27.8316 11.25 27.5001 11.25C27.1686 11.25 26.8506 11.1183 26.6162 10.8839C26.3818 10.6495 26.2501 10.3315 26.2501 10V7.5H23.7501C23.4186 7.5 23.1006 7.3683 22.8662 7.13388C22.6318 6.89946 22.5001 6.58152 22.5001 6.25ZM38.7501 13.75C38.7501 14.0815 38.6184 14.3995 38.384 14.6339C38.1496 14.8683 37.8316 15 37.5001 15H36.2501V16.25C36.2501 16.5815 36.1184 16.8995 35.884 17.1339C35.6496 17.3683 35.3316 17.5 35.0001 17.5C34.6686 17.5 34.3506 17.3683 34.1162 17.1339C33.8818 16.8995 33.7501 16.5815 33.7501 16.25V15H32.5001C32.1686 15 31.8506 14.8683 31.6162 14.6339C31.3818 14.3995 31.2501 14.0815 31.2501 13.75C31.2501 13.4185 31.3818 13.1005 31.6162 12.8661C31.8506 12.6317 32.1686 12.5 32.5001 12.5H33.7501V11.25C33.7501 10.9185 33.8818 10.6005 34.1162 10.3661C34.3506 10.1317 34.6686 10 35.0001 10C35.3316 10 35.6496 10.1317 35.884 10.3661C36.1184 10.6005 36.2501 10.9185 36.2501 11.25V12.5H37.5001C37.8316 12.5 38.1496 12.6317 38.384 12.8661C38.6184 13.1005 38.7501 13.4185 38.7501 13.75Z" fill="white"/>
</svg>
