<svg width="32" height="32" viewBox="0 0 32 32" fill="none" xmlns="http://www.w3.org/2000/svg">
<path d="M12.7632 24.6299C12.7008 24.878 11.141 30.7199 2.56099 30.7199C2.22154 30.7199 1.896 30.5851 1.65598 30.345C1.41596 30.1049 1.28111 29.7793 1.28111 29.4398C1.28111 20.8585 7.12216 19.2984 7.37013 19.236C7.6996 19.1537 8.04828 19.2056 8.33946 19.3804C8.63064 19.5552 8.84047 19.8385 8.92278 20.1681C9.0051 20.4976 8.95316 20.8463 8.77839 21.1375C8.60363 21.4288 8.32035 21.6386 7.99087 21.721C7.84689 21.761 4.40401 22.7674 3.90166 28.099C9.23235 27.5965 10.2403 24.1595 10.2819 23.9995C10.3667 23.6704 10.5788 23.3885 10.8715 23.2158C11.1642 23.0431 11.5135 22.9938 11.8425 23.0786C12.1716 23.1635 12.4534 23.3756 12.6261 23.6684C12.7987 23.9611 12.8481 24.3104 12.7632 24.6395V24.6299ZM27.6418 13.8453L26.8787 14.6085V23.9419C26.8806 24.2794 26.8154 24.6139 26.6868 24.926C26.5583 25.238 26.369 25.5214 26.1299 25.7596L20.6393 31.248C20.4025 31.4865 20.1208 31.6757 19.8105 31.8048C19.5003 31.9339 19.1675 32.0002 18.8314 32C18.5541 31.9999 18.2786 31.9551 18.0155 31.8672C17.5639 31.7178 17.163 31.445 16.8582 31.0797C16.5535 30.7143 16.3569 30.271 16.2909 29.7999L15.4318 23.6411L8.35884 16.567L2.20422 15.7078C1.7325 15.6416 1.28859 15.4451 0.922435 15.1404C0.556282 14.8356 0.282409 14.4347 0.131627 13.9828C-0.0191561 13.5309 -0.0408672 13.0459 0.0689358 12.5823C0.178739 12.1187 0.415699 11.6949 0.753162 11.3587L6.24064 5.86716C6.47882 5.62808 6.76216 5.43875 7.07416 5.31019C7.38617 5.18164 7.72062 5.11641 8.05807 5.11831H17.39L18.1531 4.35506C22.4215 0.0875964 27.565 -0.0964149 29.5776 0.0235926C30.2017 0.0615229 30.7903 0.326572 31.2324 0.768732C31.6745 1.21089 31.9395 1.79959 31.9774 2.42374C32.0942 4.43187 31.9102 9.57619 27.6434 13.8453H27.6418ZM2.56099 13.1732L8.50442 14.0021L14.8302 7.67847H8.05807L2.56099 13.1732ZM10.7714 15.359L16.6396 21.2281L25.8308 12.0355C27.0694 10.8051 28.0304 9.32366 28.649 7.6909C29.2677 6.05813 29.5298 4.31183 29.4176 2.56935C27.6763 2.46135 25.9321 2.72621 24.3013 3.34623C22.6705 3.96625 21.1908 4.92716 19.9609 6.16478L10.7714 15.359ZM24.3189 17.1687L17.9947 23.4939L18.8266 29.4398L24.3189 23.9419V17.1687Z" fill="#A17C43"/>
</svg>
