<svg width="40" height="40" viewBox="0 0 40 40" fill="none" xmlns="http://www.w3.org/2000/svg">
<path d="M38.1 11.9048C37.818 11.6589 37.4693 11.5024 37.0982 11.4551C36.7271 11.4078 36.3503 11.4719 36.0156 11.6391L28.1703 15.5454L21.6203 4.6657C21.4519 4.38652 21.2143 4.15558 20.9304 3.99528C20.6465 3.83497 20.326 3.75073 20 3.75073C19.674 3.75073 19.3535 3.83497 19.0696 3.99528C18.7857 4.15558 18.5481 4.38652 18.3797 4.6657L11.8297 15.5501L3.98749 11.6438C3.65365 11.478 3.27828 11.4145 2.90848 11.4613C2.53868 11.508 2.19092 11.663 1.90886 11.9067C1.62679 12.1503 1.42298 12.4719 1.323 12.831C1.22302 13.1901 1.23132 13.5707 1.34687 13.9251L7.12812 31.6376C7.18624 31.8155 7.2836 31.9781 7.41298 32.1134C7.54237 32.2487 7.70049 32.3532 7.87567 32.4192C8.05085 32.4852 8.23861 32.511 8.4251 32.4947C8.61159 32.4784 8.79203 32.4204 8.95312 32.3251C8.99218 32.3016 12.9875 30.0001 20 30.0001C27.0125 30.0001 31.0078 32.3016 31.0437 32.3235C31.2049 32.4198 31.3856 32.4785 31.5726 32.4954C31.7596 32.5123 31.9479 32.4868 32.1237 32.4209C32.2994 32.355 32.4581 32.2504 32.5879 32.1148C32.7177 31.9792 32.8153 31.8161 32.8734 31.6376L38.6547 13.9298C38.7735 13.5753 38.7843 13.1934 38.6855 12.8329C38.5867 12.4723 38.3829 12.1492 38.1 11.9048ZM30.9375 29.5048C29.0625 28.7094 25.325 27.5001 20 27.5001C14.675 27.5001 10.9375 28.7094 9.06249 29.5048L4.17343 14.5313L11.2156 18.0423C11.6419 18.2525 12.1314 18.2954 12.5878 18.1627C13.0441 18.0299 13.4342 17.7311 13.6812 17.3251L20 6.82195L26.3187 17.3219C26.566 17.7273 26.9558 18.0257 27.4117 18.1584C27.8676 18.291 28.3566 18.2485 28.7828 18.0391L35.8266 14.5313L30.9375 29.5048ZM27.4797 24.5048C27.4287 24.7939 27.2775 25.0559 27.0526 25.2448C26.8278 25.4336 26.5436 25.5373 26.25 25.5376C26.1767 25.5375 26.1035 25.5312 26.0312 25.5188C22.0386 24.8334 17.9583 24.8334 13.9656 25.5188C13.6391 25.5764 13.303 25.5019 13.0314 25.3118C12.7597 25.1216 12.5748 24.8313 12.5172 24.5048C12.4596 24.1782 12.5341 23.8422 12.7242 23.5705C12.9144 23.2989 13.2047 23.1139 13.5312 23.0563C17.8113 22.3209 22.1855 22.3209 26.4656 23.0563C26.7915 23.1135 27.0814 23.2977 27.2718 23.5683C27.4622 23.8389 27.5375 24.174 27.4812 24.5001L27.4797 24.5048Z" fill="#A17C43"/>
</svg>
