<svg viewBox="0 0 32 32" xmlns="http://www.w3.org/2000/svg"><g data-name="Layer 2"><path d="M4 28a.84.84 0 0 1-.38-.08A1 1 0 0 1 3 27V8.78A4.89 4.89 0 0 1 8 4h16a4.89 4.89 0 0 1 5 4.78v9.44A4.89 4.89 0 0 1 24 23H9.41l-4.7 4.71A1 1 0 0 1 4 28ZM8 6a2.9 2.9 0 0 0-3 2.78v15.81l3.29-3.3A1 1 0 0 1 9 21h15a2.9 2.9 0 0 0 3-2.78V8.78A2.9 2.9 0 0 0 24 6Z" fill="#7da3ba" class="fill-000000"></path><circle cx="16" cy="13.5" r="1.5" fill="#7da3ba" class="fill-000000"></circle><circle cx="21.5" cy="13.5" r="1.5" fill="#7da3ba" class="fill-000000"></circle><circle cx="10.5" cy="13.5" r="1.5" fill="#7da3ba" class="fill-000000"></circle></g><path d="M0 0h32v32H0z" fill="none"></path></svg>