<svg width="15" height="15" viewBox="0 0 15 15" fill="none" xmlns="http://www.w3.org/2000/svg">
<path d="M9.55045 15C9.15 14.8299 8.9625 14.5353 8.98125 14.092C8.99866 13.6687 8.98527 13.2429 8.98527 12.8183C8.98393 11.9156 8.36116 11.2687 7.4558 11.2621C5.99196 11.2513 4.52812 11.254 3.06429 11.2621C2.28214 11.2661 1.70357 11.7375 1.54821 12.4674C1.52545 12.5732 1.52812 12.6804 1.52812 12.7875C1.52679 13.2214 1.52009 13.6567 1.52812 14.0906C1.5375 14.5326 1.3567 14.8406 0.9375 14.9987H0.557143C0.285268 14.8848 0.0910714 14.6987 0 14.4121V12.3911C0.0816964 11.9424 0.210268 11.5085 0.466071 11.1241C1.02321 10.2871 1.80134 9.79554 2.80848 9.75C4.35804 9.6817 5.91027 9.72589 7.46116 9.72857C8.27143 9.72857 8.9933 10.0004 9.58125 10.5723C10.1237 11.0987 10.433 11.7402 10.4973 12.4955C10.5415 13.0259 10.5054 13.5589 10.5201 14.0893C10.5321 14.5312 10.35 14.8393 9.92946 14.9973H9.54911L9.55045 15Z" fill="#7DA3BA"/>
<path d="M15 6.59196C14.9478 7.04196 14.8915 7.49196 14.7777 7.93125C14.4455 9.22098 13.8509 10.3701 12.9536 11.3598C12.7955 11.5339 12.6442 11.7134 12.4554 11.854C12.0161 12.1808 11.392 11.9705 11.2607 11.4469C11.1991 11.1978 11.2339 10.9594 11.4161 10.7638C11.7723 10.3821 12.1246 9.99911 12.4152 9.55982C12.9362 8.77366 13.267 7.9125 13.4009 6.98304C13.6433 5.31562 13.2978 3.77277 12.3603 2.36786C12.1219 2.00893 11.8433 1.68348 11.5353 1.38214C11.3839 1.23348 11.2594 1.06741 11.2393 0.842411C11.2085 0.519643 11.3598 0.139286 11.8353 0H12.158C12.3121 0.0522321 12.4527 0.124554 12.5705 0.239732C13.6942 1.34464 14.4429 2.66116 14.8071 4.19464C14.9009 4.58839 14.9464 4.99018 15 5.38929V6.59196Z" fill="#7DA3BA"/>
<path d="M2.24464 5.99598C2.24464 4.33661 3.59732 2.98125 5.25402 2.98393C6.90402 2.98661 8.27946 4.35268 8.26473 6.00134C8.25 7.68884 6.93482 9.02143 5.24196 9.01473C3.45937 9.00803 2.22321 7.54821 2.24464 5.99598ZM6.73125 6.00402C6.73125 5.18437 6.07098 4.52009 5.25402 4.52143C4.43705 4.52143 3.76607 5.19107 3.77143 6C3.77813 6.85312 4.43036 7.47187 5.24866 7.48527C6.06429 7.49866 6.72991 6.82098 6.73125 6.00536V6.00402Z" fill="#7DA3BA"/>
<path d="M11.6089 6.15804C11.5862 7.23884 11.1563 8.29152 10.3085 9.17143C10.0125 9.47813 9.5558 9.49286 9.24107 9.21027C8.9317 8.93304 8.89554 8.48304 9.17545 8.15893C9.4192 7.87634 9.64554 7.58839 9.80625 7.24821C10.3018 6.20223 10.0955 4.84554 9.30402 3.99777C9.16741 3.85045 9.0308 3.70446 8.98929 3.49687C8.91964 3.15268 9.07098 2.82589 9.38036 2.65848C9.67366 2.49911 10.05 2.56339 10.2951 2.8125C11.1429 3.67768 11.6129 4.82545 11.6089 6.15938V6.15804Z" fill="#7DA3BA"/>
</svg>
