<svg width="28" height="28" viewBox="0 0 28 28" fill="none" xmlns="http://www.w3.org/2000/svg">
<path d="M5.24985 7C5.24985 6.76794 5.34204 6.54538 5.50613 6.38128C5.67023 6.21719 5.89279 6.125 6.12485 6.125H7.87485V4.375C7.87485 4.14294 7.96704 3.92038 8.13113 3.75628C8.29523 3.59219 8.51779 3.5 8.74985 3.5C8.98192 3.5 9.20448 3.59219 9.36857 3.75628C9.53267 3.92038 9.62485 4.14294 9.62485 4.375V6.125H11.3749C11.6069 6.125 11.8295 6.21719 11.9936 6.38128C12.1577 6.54538 12.2499 6.76794 12.2499 7C12.2499 7.23206 12.1577 7.45462 11.9936 7.61872C11.8295 7.78281 11.6069 7.875 11.3749 7.875H9.62485V9.625C9.62485 9.85706 9.53267 10.0796 9.36857 10.2437C9.20448 10.4078 8.98192 10.5 8.74985 10.5C8.51779 10.5 8.29523 10.4078 8.13113 10.2437C7.96704 10.0796 7.87485 9.85706 7.87485 9.625V7.875H6.12485C5.89279 7.875 5.67023 7.78281 5.50613 7.61872C5.34204 7.45462 5.24985 7.23206 5.24985 7ZM20.1249 21H19.2499V20.125C19.2499 19.8929 19.1577 19.6704 18.9936 19.5063C18.8295 19.3422 18.6069 19.25 18.3749 19.25C18.1428 19.25 17.9202 19.3422 17.7561 19.5063C17.592 19.6704 17.4999 19.8929 17.4999 20.125V21H16.6249C16.3928 21 16.1702 21.0922 16.0061 21.2563C15.842 21.4204 15.7499 21.6429 15.7499 21.875C15.7499 22.1071 15.842 22.3296 16.0061 22.4937C16.1702 22.6578 16.3928 22.75 16.6249 22.75H17.4999V23.625C17.4999 23.8571 17.592 24.0796 17.7561 24.2437C17.9202 24.4078 18.1428 24.5 18.3749 24.5C18.6069 24.5 18.8295 24.4078 18.9936 24.2437C19.1577 24.0796 19.2499 23.8571 19.2499 23.625V22.75H20.1249C20.3569 22.75 20.5795 22.6578 20.7436 22.4937C20.9077 22.3296 20.9999 22.1071 20.9999 21.875C20.9999 21.6429 20.9077 21.4204 20.7436 21.2563C20.5795 21.0922 20.3569 21 20.1249 21ZM26.2499 15.75H24.4999V14C24.4999 13.7679 24.4077 13.5454 24.2436 13.3813C24.0795 13.2172 23.8569 13.125 23.6249 13.125C23.3928 13.125 23.1702 13.2172 23.0061 13.3813C22.842 13.5454 22.7499 13.7679 22.7499 14V15.75H20.9999C20.7678 15.75 20.5452 15.8422 20.3811 16.0063C20.217 16.1704 20.1249 16.3929 20.1249 16.625C20.1249 16.8571 20.217 17.0796 20.3811 17.2437C20.5452 17.4078 20.7678 17.5 20.9999 17.5H22.7499V19.25C22.7499 19.4821 22.842 19.7046 23.0061 19.8687C23.1702 20.0328 23.3928 20.125 23.6249 20.125C23.8569 20.125 24.0795 20.0328 24.2436 19.8687C24.4077 19.7046 24.4999 19.4821 24.4999 19.25V17.5H26.2499C26.4819 17.5 26.7045 17.4078 26.8686 17.2437C27.0327 17.0796 27.1249 16.8571 27.1249 16.625C27.1249 16.3929 27.0327 16.1704 26.8686 16.0063C26.7045 15.8422 26.4819 15.75 26.2499 15.75ZM23.9869 8.75L8.74985 23.987C8.4217 24.315 7.97675 24.4992 7.51282 24.4992C7.04889 24.4992 6.60395 24.315 6.27579 23.987L4.01173 21.7252C3.84918 21.5626 3.72024 21.3697 3.63227 21.1574C3.5443 20.945 3.49902 20.7174 3.49902 20.4876C3.49902 20.2577 3.5443 20.0301 3.63227 19.8178C3.72024 19.6054 3.84918 19.4125 4.01173 19.25L19.2499 4.01297C19.4124 3.85042 19.6053 3.72148 19.8176 3.63351C20.03 3.54554 20.2576 3.50026 20.4874 3.50026C20.7173 3.50026 20.9449 3.54554 21.1572 3.63351C21.3696 3.72148 21.5625 3.85042 21.725 4.01297L23.9869 6.27484C24.1494 6.43735 24.2784 6.63029 24.3663 6.84263C24.4543 7.05498 24.4996 7.28257 24.4996 7.51242C24.4996 7.74227 24.4543 7.96986 24.3663 8.18221C24.2784 8.39456 24.1494 8.58749 23.9869 8.75ZM18.0117 12.25L15.7499 9.98703L5.24985 20.487L7.51173 22.75L18.0117 12.25ZM22.7499 7.51297L20.4869 5.25L16.9869 8.75L19.2499 11.013L22.7499 7.51297Z" fill="#A17C43"/>
</svg>
