<svg width="28" height="28" viewBox="0 0 28 28" fill="none" xmlns="http://www.w3.org/2000/svg">
<path d="M24.1216 9.4782L4.865 3.57195C4.60437 3.49593 4.32962 3.4816 4.06249 3.53008C3.79536 3.57857 3.54317 3.68854 3.32587 3.8513C3.10858 4.01406 2.93213 4.22514 2.81049 4.46786C2.68884 4.71058 2.62534 4.97827 2.625 5.24977V20.9998C2.625 21.4639 2.80937 21.909 3.13756 22.2372C3.46575 22.5654 3.91087 22.7498 4.375 22.7498C4.54234 22.7498 4.70883 22.7259 4.86938 22.6787L14 19.8765V20.9998C14 21.4639 14.1844 21.909 14.5126 22.2372C14.8408 22.5654 15.2859 22.7498 15.75 22.7498H19.25C19.7141 22.7498 20.1592 22.5654 20.4874 22.2372C20.8156 21.909 21 21.4639 21 20.9998V17.7295L24.1216 16.7724C24.4828 16.6639 24.7997 16.4421 25.0254 16.1398C25.251 15.8375 25.3736 15.4707 25.375 15.0935V11.156C25.3734 10.779 25.2507 10.4124 25.025 10.1104C24.7994 9.8083 24.4827 9.5867 24.1216 9.4782ZM14 18.0466L4.375 20.9998V5.24977L14 8.20289V18.0466ZM19.25 20.9998H15.75V19.3395L19.25 18.2654V20.9998ZM23.625 15.0935H23.613L15.75 17.5085V8.74102L23.613 11.1473H23.625V15.0848V15.0935Z" fill="#A87B38"/>
</svg>
