<svg width="28" height="28" viewBox="0 0 28 28" fill="none" xmlns="http://www.w3.org/2000/svg">
<path d="M12.8242 17.2727C13.9969 16.492 14.8873 15.3546 15.3636 14.0287C15.8399 12.7028 15.8768 11.2589 15.469 9.91036C15.0612 8.56185 14.2302 7.38038 13.099 6.54066C11.9678 5.70094 10.5963 5.24756 9.18749 5.24756C7.77866 5.24756 6.40722 5.70094 5.27599 6.54066C4.14476 7.38038 3.31379 8.56185 2.90597 9.91036C2.49814 11.2589 2.53511 12.7028 3.01141 14.0287C3.48771 15.3546 4.37805 16.492 5.55077 17.2727C3.42944 18.0546 1.61776 19.5014 0.386087 21.3973C0.321354 21.4935 0.276391 21.6016 0.25381 21.7153C0.23123 21.8291 0.231482 21.9462 0.254554 22.0598C0.277625 22.1734 0.323055 22.2814 0.388203 22.3773C0.453351 22.4732 0.536916 22.5552 0.634043 22.6186C0.731169 22.6819 0.839919 22.7254 0.953971 22.7463C1.06802 22.7673 1.1851 22.7653 1.2984 22.7406C1.4117 22.7159 1.51896 22.669 1.61395 22.6025C1.70894 22.5359 1.78976 22.4512 1.85171 22.3532C2.6462 21.1312 3.73335 20.1271 5.01444 19.432C6.29553 18.7369 7.72997 18.3728 9.18749 18.3728C10.645 18.3728 12.0795 18.7369 13.3605 19.432C14.6416 20.1271 15.7288 21.1312 16.5233 22.3532C16.6516 22.5439 16.8499 22.6765 17.0752 22.7222C17.3005 22.768 17.5347 22.7232 17.7273 22.5976C17.9198 22.472 18.0552 22.2757 18.1042 22.0511C18.1531 21.8265 18.1117 21.5916 17.9889 21.3973C16.7572 19.5014 14.9455 18.0546 12.8242 17.2727ZM4.37499 11.8127C4.37499 10.8609 4.65724 9.93045 5.18605 9.13904C5.71485 8.34763 6.46646 7.7308 7.34583 7.36655C8.2252 7.0023 9.19283 6.907 10.1264 7.09269C11.0599 7.27838 11.9174 7.73673 12.5904 8.40977C13.2635 9.08281 13.7218 9.94032 13.9075 10.8738C14.0932 11.8074 13.9979 12.775 13.6337 13.6544C13.2694 14.5338 12.6526 15.2854 11.8612 15.8142C11.0698 16.343 10.1393 16.6252 9.18749 16.6252C7.91158 16.6238 6.68834 16.1163 5.78614 15.2141C4.88393 14.3119 4.37644 13.0886 4.37499 11.8127ZM27.3591 22.608C27.1647 22.7348 26.9279 22.7791 26.7009 22.7313C26.4738 22.6835 26.2751 22.5475 26.1483 22.3532C25.3547 21.1305 24.2677 20.1259 22.9864 19.4311C21.705 18.7363 20.2701 18.3733 18.8125 18.3752C18.5804 18.3752 18.3579 18.283 18.1938 18.1189C18.0297 17.9548 17.9375 17.7323 17.9375 17.5002C17.9375 17.2682 18.0297 17.0456 18.1938 16.8815C18.3579 16.7174 18.5804 16.6252 18.8125 16.6252C19.5212 16.6246 20.221 16.4674 20.862 16.1649C21.5029 15.8624 22.0691 15.4221 22.5201 14.8754C22.9711 14.3287 23.2959 13.6892 23.4711 13.0025C23.6463 12.3158 23.6677 11.5988 23.5337 10.9029C23.3997 10.2069 23.1136 9.5492 22.696 8.97662C22.2783 8.40405 21.7393 7.93079 21.1176 7.59066C20.4958 7.25054 19.8066 7.05193 19.0992 7.00904C18.3918 6.96616 17.6836 7.08004 17.0253 7.34257C16.918 7.38896 16.8024 7.41338 16.6855 7.41437C16.5686 7.41536 16.4526 7.3929 16.3445 7.34832C16.2364 7.30374 16.1384 7.23795 16.0561 7.15482C15.9739 7.0717 15.9091 6.97294 15.8657 6.86437C15.8223 6.7558 15.801 6.63962 15.8033 6.52271C15.8055 6.4058 15.8311 6.29052 15.8787 6.18368C15.9262 6.07685 15.9947 5.98063 16.08 5.9007C16.1654 5.82078 16.2659 5.75877 16.3756 5.71835C17.8822 5.1175 19.558 5.09587 21.0795 5.65765C22.6012 6.21943 23.8608 7.3248 24.6155 8.76052C25.3702 10.1962 25.5664 11.8606 25.1664 13.4325C24.7664 15.0044 23.7984 16.3724 22.4492 17.2727C24.5705 18.0546 26.3822 19.5014 27.6139 21.3973C27.7406 21.5916 27.785 21.8284 27.7372 22.0554C27.6894 22.2825 27.5534 22.4813 27.3591 22.608Z" fill="#A17C43"/>
</svg>
