<svg width="28" height="28" viewBox="0 0 28 28" fill="none" xmlns="http://www.w3.org/2000/svg">
<path d="M22.6472 8.82333C21.513 7.68654 20.1649 6.78553 18.6808 6.17224C17.1967 5.55896 15.6058 5.24554 14 5.25005H13.9562C7.22641 5.27302 1.75 10.8282 1.75 17.6236V20.125C1.75 20.5892 1.93437 21.0343 2.26256 21.3625C2.59075 21.6907 3.03587 21.875 3.5 21.875H24.5C24.9641 21.875 25.4092 21.6907 25.7374 21.3625C26.0656 21.0343 26.25 20.5892 26.25 20.125V17.5C26.2545 15.8872 25.9383 14.2895 25.3198 12.7999C24.7013 11.3104 23.7928 9.95864 22.6472 8.82333ZM24.5 20.125H13.0933L19.0827 11.8891C19.2193 11.7014 19.2758 11.4672 19.2397 11.2378C19.2036 11.0085 19.0778 10.8029 18.8902 10.6663C18.7025 10.5297 18.4682 10.4732 18.2389 10.5093C18.0096 10.5454 17.804 10.6711 17.6673 10.8588L10.9287 20.125H3.5V17.6236C3.5 17.2868 3.51641 16.9543 3.54703 16.625H6.125C6.35706 16.625 6.57962 16.5329 6.74372 16.3688C6.90781 16.2047 7 15.9821 7 15.75C7 15.518 6.90781 15.2954 6.74372 15.1313C6.57962 14.9672 6.35706 14.875 6.125 14.875H3.85766C4.98641 10.6247 8.67016 7.4113 13.125 7.03723V9.62505C13.125 9.85711 13.2172 10.0797 13.3813 10.2438C13.5454 10.4079 13.7679 10.5 14 10.5C14.2321 10.5 14.4546 10.4079 14.6187 10.2438C14.7828 10.0797 14.875 9.85711 14.875 9.62505V7.03614C17.0457 7.21882 19.1061 8.07116 20.7715 9.47538C22.4369 10.8796 23.6251 12.7664 24.1719 14.875H21.875C21.6429 14.875 21.4204 14.9672 21.2563 15.1313C21.0922 15.2954 21 15.518 21 15.75C21 15.9821 21.0922 16.2047 21.2563 16.3688C21.4204 16.5329 21.6429 16.625 21.875 16.625H24.4639C24.4869 16.9149 24.5 17.2058 24.5 17.5V20.125Z" fill="white"/>
</svg>
