<svg width="28" height="28" viewBox="0 0 28 28" fill="none" xmlns="http://www.w3.org/2000/svg">
<path d="M13.9998 8.74981C12.9615 8.74981 11.9464 9.05771 11.0831 9.63459C10.2197 10.2115 9.5468 11.0314 9.14944 11.9907C8.75208 12.95 8.64811 14.0056 8.85068 15.024C9.05326 16.0424 9.55327 16.9779 10.2875 17.7121C11.0217 18.4463 11.9572 18.9464 12.9756 19.1489C13.994 19.3515 15.0496 19.2475 16.0089 18.8502C16.9682 18.4528 17.7881 17.7799 18.365 16.9166C18.9419 16.0532 19.2498 15.0382 19.2498 13.9998C19.2484 12.6079 18.6948 11.2733 17.7105 10.2891C16.7263 9.30484 15.3918 8.75125 13.9998 8.74981ZM13.9998 17.4998C13.3076 17.4998 12.6309 17.2945 12.0553 16.91C11.4797 16.5254 11.0311 15.9787 10.7662 15.3392C10.5013 14.6997 10.432 13.9959 10.5671 13.317C10.7021 12.6381 11.0354 12.0144 11.5249 11.5249C12.0144 11.0354 12.6381 10.7021 13.317 10.5671C13.9959 10.432 14.6997 10.5013 15.3392 10.7662C15.9787 11.0311 16.5254 11.4797 16.91 12.0553C17.2945 12.6309 17.4998 13.3076 17.4998 13.9998C17.4998 14.9281 17.1311 15.8183 16.4747 16.4747C15.8183 17.1311 14.9281 17.4998 13.9998 17.4998ZM23.6248 14.2361C23.6292 14.0786 23.6292 13.9211 23.6248 13.7636L25.2567 11.7248C25.3422 11.6178 25.4015 11.4921 25.4296 11.358C25.4577 11.2239 25.4539 11.085 25.4186 10.9526C25.151 9.94703 24.7509 8.98152 24.2286 8.08153C24.1602 7.96375 24.0652 7.86356 23.9513 7.78894C23.8374 7.71431 23.7076 7.66731 23.5723 7.65168L20.9779 7.36293C20.87 7.24918 20.7606 7.13981 20.6498 7.03481L20.3436 4.43387C20.3278 4.29848 20.2806 4.16864 20.2058 4.0547C20.131 3.94076 20.0306 3.84588 19.9126 3.77762C19.0123 3.25628 18.0469 2.8565 17.0415 2.58871C16.909 2.55349 16.7701 2.54989 16.636 2.57819C16.5019 2.6065 16.3763 2.66593 16.2693 2.75168L14.2361 4.37481C14.0786 4.37481 13.9211 4.37481 13.7636 4.37481L11.7248 2.74621C11.6178 2.66065 11.4921 2.60142 11.358 2.5733C11.2239 2.54519 11.085 2.54897 10.9526 2.58434C9.94719 2.85234 8.98174 3.25249 8.08153 3.77434C7.96375 3.84272 7.86356 3.93766 7.78894 4.05159C7.71431 4.16552 7.66731 4.29529 7.65168 4.43059L7.36293 7.02934C7.24918 7.13798 7.13981 7.24736 7.03481 7.35746L4.43387 7.65606C4.29848 7.67181 4.16864 7.71897 4.0547 7.79379C3.94076 7.86861 3.84588 7.96901 3.77762 8.08699C3.25628 8.98733 2.8565 9.95276 2.58871 10.9581C2.55349 11.0906 2.54989 11.2295 2.57819 11.3636C2.6065 11.4977 2.66593 11.6233 2.75168 11.7303L4.37481 13.7636C4.37481 13.9211 4.37481 14.0786 4.37481 14.2361L2.74621 16.2748C2.66065 16.3819 2.60142 16.5075 2.5733 16.6416C2.54519 16.7757 2.54897 16.9146 2.58434 17.047C2.85186 18.0526 3.25204 19.0181 3.77434 19.9181C3.84272 20.0359 3.93766 20.1361 4.05159 20.2107C4.16552 20.2853 4.29529 20.3323 4.43059 20.3479L7.02496 20.6367C7.13361 20.7504 7.24298 20.8598 7.35309 20.9648L7.65606 23.5657C7.67181 23.7011 7.71897 23.831 7.79379 23.9449C7.86861 24.0589 7.96901 24.1537 8.08699 24.222C8.98733 24.7433 9.95276 25.1431 10.9581 25.4109C11.0906 25.4461 11.2295 25.4497 11.3636 25.4214C11.4977 25.3931 11.6233 25.3337 11.7303 25.2479L13.7636 23.6248C13.9211 23.6292 14.0786 23.6292 14.2361 23.6248L16.2748 25.2567C16.3819 25.3422 16.5075 25.4015 16.6416 25.4296C16.7757 25.4577 16.9146 25.4539 17.047 25.4186C18.0526 25.151 19.0181 24.7509 19.9181 24.2286C20.0359 24.1602 20.1361 24.0652 20.2107 23.9513C20.2853 23.8374 20.3323 23.7076 20.3479 23.5723L20.6367 20.9779C20.7504 20.87 20.8598 20.7606 20.9648 20.6498L23.5657 20.3436C23.7011 20.3278 23.831 20.2806 23.9449 20.2058C24.0589 20.131 24.1537 20.0306 24.222 19.9126C24.7433 19.0123 25.1431 18.0469 25.4109 17.0415C25.4461 16.909 25.4497 16.7701 25.4214 16.636C25.3931 16.5019 25.3337 16.3763 25.2479 16.2693L23.6248 14.2361ZM21.8639 13.5251C21.8825 13.8413 21.8825 14.1583 21.8639 14.4745C21.8508 14.691 21.9187 14.9046 22.0542 15.0739L23.6062 17.0131C23.4281 17.5791 23.2001 18.1281 22.9248 18.6537L20.4529 18.9337C20.2377 18.9576 20.0389 19.0605 19.8951 19.2225C19.6846 19.4593 19.4603 19.6835 19.2236 19.894C19.0616 20.0378 18.9587 20.2366 18.9348 20.4518L18.6603 22.9215C18.1347 23.1969 17.5857 23.425 17.0197 23.6029L15.0793 22.0509C14.9241 21.9268 14.7312 21.8593 14.5325 21.8595H14.48C14.1638 21.8781 13.8468 21.8781 13.5306 21.8595C13.3141 21.8465 13.1005 21.9143 12.9312 22.0498L10.9865 23.6029C10.4205 23.4248 9.87151 23.1968 9.3459 22.9215L9.0659 20.4529C9.04201 20.2377 8.93912 20.0389 8.77715 19.8951C8.54036 19.6846 8.31612 19.4603 8.10559 19.2236C7.9618 19.0616 7.76304 18.9587 7.54778 18.9348L5.07809 18.6592C4.80267 18.1336 4.57464 17.5846 4.39668 17.0186L5.94871 15.0782C6.08423 14.9089 6.15206 14.6953 6.13903 14.4789C6.12043 14.1627 6.12043 13.8457 6.13903 13.5295C6.15206 13.313 6.08423 13.0994 5.94871 12.9301L4.39668 10.9865C4.57477 10.4205 4.8028 9.87151 5.07809 9.3459L7.54668 9.0659C7.76195 9.04201 7.9607 8.93912 8.10449 8.77715C8.31503 8.54036 8.53927 8.31612 8.77606 8.10559C8.93867 7.9617 9.04198 7.76249 9.0659 7.54668L9.34043 5.07809C9.86598 4.80267 10.415 4.57464 10.9811 4.39668L12.9214 5.94871C13.0907 6.08423 13.3043 6.15206 13.5207 6.13903C13.8369 6.12043 14.1539 6.12043 14.4701 6.13903C14.6866 6.15206 14.9002 6.08423 15.0695 5.94871L17.0131 4.39668C17.5791 4.57477 18.1281 4.8028 18.6537 5.07809L18.9337 7.54668C18.9576 7.76195 19.0605 7.9607 19.2225 8.10449C19.4593 8.31503 19.6835 8.53927 19.894 8.77606C20.0378 8.93803 20.2366 9.04091 20.4518 9.06481L22.9215 9.33934C23.1969 9.86489 23.425 10.4139 23.6029 10.98L22.0509 12.9203C21.9141 13.091 21.8462 13.3068 21.8606 13.5251H21.8639Z" fill="#A17C43"/>
</svg>
