<svg width="28" height="28" viewBox="0 0 28 28" fill="none" xmlns="http://www.w3.org/2000/svg">
<path d="M18.375 12.2502C18.375 12.4823 18.2828 12.7048 18.1187 12.8689C17.9546 13.033 17.7321 13.1252 17.5 13.1252H10.5C10.2679 13.1252 10.0454 13.033 9.88128 12.8689C9.71719 12.7048 9.625 12.4823 9.625 12.2502C9.625 12.0182 9.71719 11.7956 9.88128 11.6315C10.0454 11.4674 10.2679 11.3752 10.5 11.3752H17.5C17.7321 11.3752 17.9546 11.4674 18.1187 11.6315C18.2828 11.7956 18.375 12.0182 18.375 12.2502ZM17.5 14.8752H10.5C10.2679 14.8752 10.0454 14.9674 9.88128 15.1315C9.71719 15.2956 9.625 15.5182 9.625 15.7502C9.625 15.9823 9.71719 16.2048 9.88128 16.3689C10.0454 16.533 10.2679 16.6252 10.5 16.6252H17.5C17.7321 16.6252 17.9546 16.533 18.1187 16.3689C18.2828 16.2048 18.375 15.9823 18.375 15.7502C18.375 15.5182 18.2828 15.2956 18.1187 15.1315C17.9546 14.9674 17.7321 14.8752 17.5 14.8752ZM25.375 14.0002C25.3754 15.9641 24.8674 17.8946 23.9004 19.6039C22.9333 21.3132 21.5403 22.7429 19.8567 23.7541C18.1732 24.7652 16.2565 25.3233 14.2933 25.3739C12.3301 25.4246 10.3872 24.966 8.65375 24.043L4.92953 25.2844C4.62119 25.3873 4.2903 25.4022 3.97395 25.3275C3.6576 25.2529 3.3683 25.0916 3.13846 24.8618C2.90863 24.6319 2.74734 24.3426 2.67268 24.0263C2.59803 23.7099 2.61295 23.379 2.71578 23.0707L3.95719 19.3465C3.14579 17.8209 2.69259 16.1306 2.632 14.4038C2.5714 12.677 2.90501 10.959 3.60748 9.38036C4.30996 7.80171 5.36284 6.40385 6.68622 5.29286C8.0096 4.18188 9.56869 3.38699 11.2451 2.96852C12.9216 2.55005 14.6713 2.519 16.3616 2.87773C18.0518 3.23646 19.6381 3.97554 21.0001 5.03887C22.3621 6.1022 23.4639 7.46184 24.2219 9.01457C24.9799 10.5673 25.3743 12.2723 25.375 14.0002ZM23.625 14.0002C23.6246 12.5238 23.2845 11.0672 22.6311 9.74328C21.9777 8.41931 21.0285 7.26341 19.8568 6.365C18.6852 5.46659 17.3226 4.84976 15.8744 4.56223C14.4263 4.2747 12.9314 4.32418 11.5054 4.70684C10.0794 5.0895 8.7606 5.79508 7.65095 6.76899C6.54129 7.7429 5.67057 8.95904 5.10613 10.3233C4.54169 11.6876 4.29868 13.1634 4.39588 14.6367C4.49309 16.1099 4.92792 17.541 5.66672 18.8193C5.72873 18.9266 5.76723 19.0459 5.77967 19.1692C5.79212 19.2925 5.77822 19.4171 5.73891 19.5346L4.375 23.6252L8.46562 22.2613C8.55472 22.2309 8.64821 22.2154 8.74234 22.2154C8.89602 22.2156 9.04691 22.2564 9.17984 22.3335C10.6431 23.1801 12.3034 23.6264 13.9939 23.6274C15.6844 23.6285 17.3453 23.1843 18.8096 22.3396C20.2739 21.4948 21.4899 20.2794 22.3352 18.8154C23.1805 17.3515 23.6254 15.6907 23.625 14.0002Z" fill="#A17C43"/>
</svg>
